<svg width="185" height="64" viewBox="0 0 185 64" fill="none" xmlns="http://www.w3.org/2000/svg">
<rect width="185" height="64" rx="10" fill="#0D0D0D"/>
<path d="M44.5379 37.793C43.9184 39.167 43.6199 39.7805 42.8219 40.9955C41.7089 42.6905 40.1369 44.8025 38.1914 44.8205C36.4634 44.8355 36.0194 43.6955 33.6719 43.709C31.3259 43.721 30.8369 44.8415 29.1074 44.825C27.1619 44.807 25.6724 42.9005 24.5579 41.204C21.4424 36.464 21.1169 30.899 23.0384 27.9395C24.4034 25.838 26.5589 24.608 28.5839 24.608C30.6464 24.608 31.9439 25.739 33.6479 25.739C35.3024 25.739 36.3104 24.605 38.6954 24.605C40.4954 24.605 42.4064 25.5875 43.7669 27.2825C39.3089 29.726 40.0319 36.092 44.5379 37.793ZM36.8864 22.712C37.7519 21.599 38.4104 20.03 38.1719 18.425C36.7559 18.5225 35.1014 19.4225 34.1339 20.597C33.2579 21.662 32.5334 23.2415 32.8139 24.7775C34.3589 24.824 35.9579 23.9015 36.8864 22.712Z" fill="url(#paint0_linear_82_100)"/>
<path d="M61.2801 19.672C62.1603 19.672 62.8335 19.9142 63.2996 20.3986C63.7684 20.8804 64.0027 21.577 64.0027 22.4884C64.0027 23.3999 63.7658 24.103 63.2918 24.5978C62.8205 25.09 62.1499 25.3361 61.2801 25.3361H59.4481V19.672H61.2801ZM61.2801 24.6564C61.9051 24.6564 62.3817 24.4728 62.7098 24.1056C63.0379 23.7358 63.202 23.1968 63.202 22.4884C63.202 21.7905 63.0392 21.2606 62.7137 20.8986C62.3882 20.534 61.9103 20.3517 61.2801 20.3517H60.2176V24.6564H61.2801ZM66.8104 21.1447C67.4276 21.1447 67.9068 21.3322 68.2479 21.7072C68.5891 22.0796 68.7597 22.6017 68.7597 23.2736C68.7597 23.9455 68.5891 24.4676 68.2479 24.84C67.9068 25.2124 67.4276 25.3986 66.8104 25.3986C66.1906 25.3986 65.7102 25.2124 65.369 24.84C65.0279 24.4676 64.8573 23.9455 64.8573 23.2736C64.8573 22.6017 65.0279 22.0796 65.369 21.7072C65.7102 21.3322 66.1906 21.1447 66.8104 21.1447ZM66.8104 21.8088C66.425 21.8088 66.1307 21.9338 65.9276 22.1838C65.7271 22.4338 65.6268 22.797 65.6268 23.2736C65.6268 23.7476 65.7271 24.1095 65.9276 24.3595C66.1307 24.6095 66.425 24.7345 66.8104 24.7345C67.1932 24.7345 67.4862 24.6095 67.6893 24.3595C67.8925 24.1095 67.994 23.7476 67.994 23.2736C67.994 22.7996 67.8925 22.4377 67.6893 22.1877C67.4862 21.9351 67.1932 21.8088 66.8104 21.8088ZM72.7002 23.3908C72.6637 23.258 72.6077 23.0236 72.5322 22.6877C72.5166 22.6278 72.4996 22.5601 72.4814 22.4845C72.4658 22.4064 72.4449 22.3218 72.4189 22.2306C72.3824 22.353 72.3395 22.5262 72.29 22.7502C72.2197 23.0548 72.1663 23.2684 72.1298 23.3908L71.5791 25.3361H70.54L69.3798 21.2228H70.122L70.6845 23.2658L71.0595 24.6095C71.2418 24.0132 71.3746 23.5653 71.458 23.2658L72.0595 21.2228H72.7705L73.372 23.2658C73.458 23.5653 73.5908 24.0132 73.7705 24.6095L74.1455 23.2658L74.708 21.2228H75.4502L74.29 25.3361H73.2509L72.7002 23.3908ZM77.0742 21.8009C77.2722 21.5822 77.4896 21.4194 77.7266 21.3127C77.9636 21.2059 78.2292 21.1525 78.5235 21.1525C78.961 21.1525 79.2956 21.2788 79.5274 21.5314C79.7591 21.784 79.875 22.1512 79.875 22.633V25.3361H79.1211V22.6877C79.1211 22.383 79.0586 22.1616 78.9336 22.0236C78.8086 21.8856 78.6081 21.8166 78.3321 21.8166C78.0873 21.8166 77.8581 21.8713 77.6446 21.9806C77.431 22.09 77.2591 22.241 77.1289 22.4338V25.3361H76.3789V21.2228H76.9883L77.0742 21.8009ZM81.2335 19.3361H81.9835V25.3361H81.2335V19.3361ZM85.0724 21.1447C85.6896 21.1447 86.1688 21.3322 86.5099 21.7072C86.8511 22.0796 87.0217 22.6017 87.0217 23.2736C87.0217 23.9455 86.8511 24.4676 86.5099 24.84C86.1688 25.2124 85.6896 25.3986 85.0724 25.3986C84.4526 25.3986 83.9722 25.2124 83.631 24.84C83.2899 24.4676 83.1193 23.9455 83.1193 23.2736C83.1193 22.6017 83.2899 22.0796 83.631 21.7072C83.9722 21.3322 84.4526 21.1447 85.0724 21.1447ZM85.0724 21.8088C84.687 21.8088 84.3927 21.9338 84.1896 22.1838C83.9891 22.4338 83.8888 22.797 83.8888 23.2736C83.8888 23.7476 83.9891 24.1095 84.1896 24.3595C84.3927 24.6095 84.687 24.7345 85.0724 24.7345C85.4552 24.7345 85.7482 24.6095 85.9513 24.3595C86.1545 24.1095 86.256 23.7476 86.256 23.2736C86.256 22.7996 86.1545 22.4377 85.9513 22.1877C85.7482 21.9351 85.4552 21.8088 85.0724 21.8088ZM89.5364 21.1603C90.0494 21.1603 90.4439 21.2957 90.72 21.5666C90.9986 21.8348 91.1379 22.2189 91.1379 22.7189V25.3361H90.5598L90.4504 24.8556C90.0494 25.228 89.5989 25.4142 89.0989 25.4142C88.6874 25.4142 88.3606 25.3035 88.1184 25.0822C87.8762 24.8608 87.7551 24.564 87.7551 24.1916C87.7551 23.7593 87.9322 23.422 88.2864 23.1798C88.6405 22.9377 89.1379 22.8166 89.7786 22.8166H90.384V22.7033C90.3632 22.1173 90.0624 21.8244 89.4817 21.8244C89.3046 21.8244 89.1054 21.8517 88.884 21.9064C88.6627 21.9585 88.44 22.0301 88.2161 22.1213L88.009 21.5119C88.2486 21.3999 88.5012 21.314 88.7668 21.2541C89.0351 21.1916 89.2916 21.1603 89.5364 21.1603ZM89.8254 23.3908C89.4088 23.3908 89.0845 23.4598 88.8528 23.5978C88.621 23.7332 88.5051 23.9233 88.5051 24.1681C88.5051 24.3556 88.5689 24.5002 88.6965 24.6017C88.8241 24.7007 89.0025 24.7502 89.2317 24.7502C89.4504 24.7502 89.664 24.7046 89.8723 24.6134C90.0806 24.5197 90.2512 24.3947 90.384 24.2384V23.3908H89.8254ZM95.1956 24.8166C95.0185 25.0197 94.8297 25.1681 94.6292 25.2619C94.4313 25.353 94.2125 25.3986 93.973 25.3986C93.3974 25.3986 92.9521 25.2202 92.637 24.8634C92.3219 24.5067 92.1644 24.0002 92.1644 23.3439C92.1644 22.6616 92.3506 22.1265 92.723 21.7384C93.098 21.3478 93.6162 21.1525 94.2777 21.1525C94.5172 21.1525 94.8076 21.1903 95.1487 21.2658V19.3361H95.8987V25.3283H95.3011L95.1956 24.8166ZM94.0198 24.7345C94.2829 24.7345 94.512 24.6642 94.7073 24.5236C94.9053 24.383 95.0524 24.1851 95.1487 23.9298V21.9377C94.9352 21.8856 94.775 21.853 94.6683 21.84C94.5615 21.8244 94.4339 21.8166 94.2855 21.8166C93.8584 21.8166 93.5264 21.952 93.2894 22.2228C93.0524 22.491 92.9339 22.8647 92.9339 23.3439C92.9339 23.7866 93.0277 24.1291 93.2152 24.3713C93.4053 24.6134 93.6735 24.7345 94.0198 24.7345ZM101.022 21.1447C101.639 21.1447 102.118 21.3322 102.459 21.7072C102.801 22.0796 102.971 22.6017 102.971 23.2736C102.971 23.9455 102.801 24.4676 102.459 24.84C102.118 25.2124 101.639 25.3986 101.022 25.3986C100.402 25.3986 99.9217 25.2124 99.5805 24.84C99.2394 24.4676 99.0688 23.9455 99.0688 23.2736C99.0688 22.6017 99.2394 22.0796 99.5805 21.7072C99.9217 21.3322 100.402 21.1447 101.022 21.1447ZM101.022 21.8088C100.637 21.8088 100.342 21.9338 100.139 22.1838C99.9386 22.4338 99.8383 22.797 99.8383 23.2736C99.8383 23.7476 99.9386 24.1095 100.139 24.3595C100.342 24.6095 100.637 24.7345 101.022 24.7345C101.405 24.7345 101.698 24.6095 101.901 24.3595C102.104 24.1095 102.206 23.7476 102.206 23.2736C102.206 22.7996 102.104 22.4377 101.901 22.1877C101.698 21.9351 101.405 21.8088 101.022 21.8088ZM104.798 21.8009C104.996 21.5822 105.214 21.4194 105.451 21.3127C105.688 21.2059 105.953 21.1525 106.248 21.1525C106.685 21.1525 107.02 21.2788 107.251 21.5314C107.483 21.784 107.599 22.1512 107.599 22.633V25.3361H106.845V22.6877C106.845 22.383 106.783 22.1616 106.658 22.0236C106.533 21.8856 106.332 21.8166 106.056 21.8166C105.811 21.8166 105.582 21.8713 105.369 21.9806C105.155 22.09 104.983 22.241 104.853 22.4338V25.3361H104.103V21.2228H104.712L104.798 21.8009ZM113.332 25.1994C113.022 25.3218 112.734 25.383 112.468 25.383C112.073 25.383 111.771 25.2814 111.562 25.0783C111.356 24.8726 111.254 24.5718 111.254 24.1759V21.8713H110.535V21.2228H111.293L111.453 20.047H112.007V21.2228H113.261V21.8713H112.007V24.0548C112.007 24.2892 112.053 24.4572 112.144 24.5588C112.238 24.6603 112.392 24.7111 112.605 24.7111C112.793 24.7111 112.988 24.6772 113.191 24.6095L113.332 25.1994ZM115.057 21.7502C115.438 21.3517 115.902 21.1525 116.452 21.1525C116.889 21.1525 117.224 21.2788 117.456 21.5314C117.688 21.784 117.803 22.1512 117.803 22.633V25.3361H117.05V22.6877C117.05 22.383 116.987 22.1616 116.862 22.0236C116.737 21.8856 116.537 21.8166 116.26 21.8166C116.016 21.8166 115.787 21.8713 115.573 21.9806C115.359 22.09 115.188 22.241 115.057 22.4338V25.3361H114.307V19.3048H115.057V21.7502ZM119.611 23.4142C119.632 23.8413 119.747 24.1681 119.955 24.3947C120.163 24.6213 120.456 24.7345 120.834 24.7345C121.042 24.7345 121.243 24.7124 121.435 24.6681C121.631 24.6239 121.852 24.5483 122.099 24.4416L122.338 25.0002C122.054 25.1382 121.788 25.2397 121.541 25.3048C121.293 25.3673 121.045 25.3986 120.795 25.3986C120.175 25.3986 119.694 25.2124 119.353 24.84C119.012 24.4676 118.842 23.9455 118.842 23.2736C118.842 22.6017 119.01 22.0809 119.346 21.7111C119.681 21.3387 120.157 21.1525 120.771 21.1525C121.347 21.1525 121.775 21.3257 122.056 21.672C122.34 22.0184 122.482 22.5431 122.482 23.2463V23.4142H119.611ZM121.705 22.7853C121.684 22.465 121.593 22.2241 121.431 22.0627C121.273 21.8986 121.053 21.8166 120.771 21.8166C120.146 21.8166 119.773 22.1395 119.65 22.7853H121.705Z" fill="white"/>
<path d="M62.1434 39.2267L61.2215 42.1407H58.8152L62.4949 30.797H65.7293L69.5027 42.1407H67.1356L66.1746 39.2267H62.1434ZM64.0809 32.8907L62.6902 37.422H65.6199L64.1902 32.8907H64.0809ZM75.6962 33.6485C76.8577 33.6485 77.7614 34.0079 78.4072 34.7267C79.053 35.4454 79.3759 36.4663 79.3759 37.7892C79.3759 38.7163 79.191 39.5157 78.8212 40.1876C78.4515 40.8595 77.928 41.3751 77.2509 41.7345C76.5739 42.0886 75.7718 42.2657 74.8447 42.2657C74.4072 42.2657 73.9384 42.2084 73.4384 42.0939V45.8048H71.04V33.7579H72.8759L73.2431 34.7501C73.5973 34.3647 73.9671 34.086 74.3525 33.9142C74.7431 33.7371 75.191 33.6485 75.6962 33.6485ZM74.7041 40.6329C75.428 40.6329 75.9827 40.3985 76.3681 39.9298C76.7587 39.461 76.9541 38.7735 76.9541 37.8673C76.9541 36.1798 76.3681 35.3386 75.1962 35.3439C74.7692 35.3439 74.402 35.4584 74.0947 35.6876C73.7926 35.9168 73.5739 36.2397 73.4384 36.6564V40.461C73.7457 40.534 73.9775 40.5808 74.1337 40.6017C74.29 40.6225 74.4801 40.6329 74.7041 40.6329ZM85.9835 33.6485C87.145 33.6485 88.0486 34.0079 88.6944 34.7267C89.3403 35.4454 89.6632 36.4663 89.6632 37.7892C89.6632 38.7163 89.4783 39.5157 89.1085 40.1876C88.7387 40.8595 88.2153 41.3751 87.5382 41.7345C86.8611 42.0886 86.059 42.2657 85.1319 42.2657C84.6944 42.2657 84.2257 42.2084 83.7257 42.0939V45.8048H81.3272V33.7579H83.1632L83.5304 34.7501C83.8845 34.3647 84.2543 34.086 84.6397 33.9142C85.0304 33.7371 85.4783 33.6485 85.9835 33.6485ZM84.9913 40.6329C85.7153 40.6329 86.27 40.3985 86.6554 39.9298C87.046 39.461 87.2413 38.7735 87.2413 37.8673C87.2413 36.1798 86.6554 35.3386 85.4835 35.3439C85.0564 35.3439 84.6892 35.4584 84.3819 35.6876C84.0798 35.9168 83.8611 36.2397 83.7257 36.6564V40.461C84.033 40.534 84.2647 40.5808 84.421 40.6017C84.5772 40.6225 84.7673 40.6329 84.9913 40.6329ZM99.1908 30.6564C100.128 30.6511 101.183 30.8569 102.355 31.2735L101.863 33.1485C100.774 32.7631 99.8887 32.5704 99.2064 32.5704C98.6543 32.5704 98.2195 32.6798 97.9017 32.8985C97.584 33.1173 97.4252 33.4142 97.4252 33.7892C97.4252 34.1954 97.571 34.5183 97.8627 34.7579C98.1596 34.9975 98.6986 35.2189 99.4799 35.422C100.631 35.7189 101.449 36.1303 101.933 36.6564C102.417 37.1772 102.66 37.8959 102.66 38.8126C102.66 39.922 102.285 40.7735 101.535 41.3673C100.79 41.9558 99.7247 42.2501 98.3392 42.2501C97.209 42.2501 95.9981 41.9949 94.7064 41.4845L95.2846 39.6642C95.9981 39.9194 96.5814 40.0991 97.0346 40.2032C97.4877 40.3022 97.9174 40.3517 98.3236 40.3517C98.9122 40.3517 99.3653 40.2267 99.683 39.9767C100.006 39.7215 100.167 39.3699 100.167 38.922C100.167 38.6355 100.1 38.3959 99.9642 38.2032C99.8288 38.0105 99.5997 37.8386 99.2767 37.6876C98.9538 37.5314 98.4877 37.3777 97.8783 37.2267C96.8627 36.9819 96.1205 36.6017 95.6517 36.086C95.183 35.5704 94.9486 34.8907 94.9486 34.047C94.9486 32.9689 95.3184 32.1355 96.058 31.547C96.8028 30.9532 97.8471 30.6564 99.1908 30.6564ZM109.775 41.8204C109.051 42.1173 108.358 42.2657 107.697 42.2657C105.853 42.2657 104.931 41.3855 104.931 39.6251V35.4376H103.548V33.7579H105.087L105.548 31.3595H107.314V33.7579H109.603V35.4376H107.314V39.2892C107.314 39.7163 107.392 40.0209 107.548 40.2032C107.71 40.3855 107.983 40.4767 108.369 40.4767C108.697 40.4767 109.048 40.4116 109.423 40.2814L109.775 41.8204ZM115.117 33.5626C116.497 33.5626 117.554 33.9402 118.289 34.6954C119.023 35.4454 119.39 36.5235 119.39 37.9298C119.39 39.336 119.023 40.4194 118.289 41.1798C117.554 41.9402 116.497 42.3204 115.117 42.3204C113.752 42.3204 112.7 41.9428 111.961 41.1876C111.221 40.4272 110.851 39.3413 110.851 37.9298C110.851 36.5235 111.218 35.4454 111.953 34.6954C112.687 33.9402 113.742 33.5626 115.117 33.5626ZM115.117 35.3595C113.882 35.3543 113.265 36.211 113.265 37.9298C113.265 39.6485 113.882 40.5079 115.117 40.5079C116.356 40.5079 116.976 39.6485 116.976 37.9298C116.976 36.211 116.356 35.3543 115.117 35.3595ZM123.482 34.922C124.008 34.0574 124.745 33.6251 125.693 33.6251C125.896 33.6251 126.068 33.6381 126.209 33.6642C126.355 33.685 126.54 33.7267 126.763 33.7892L126.49 35.8829C126.042 35.7215 125.646 35.6433 125.303 35.6485C124.928 35.6485 124.61 35.7163 124.349 35.8517C124.089 35.9819 123.87 36.1902 123.693 36.4767V42.1407H121.287V33.7579H123.193L123.482 34.922ZM129.793 38.3985C129.918 39.8256 130.652 40.5392 131.996 40.5392C132.413 40.5392 132.832 40.4923 133.254 40.3985C133.676 40.2996 134.142 40.1433 134.652 39.9298L135.23 41.422C133.96 42.0105 132.785 42.3022 131.707 42.297C130.384 42.297 129.345 41.9116 128.59 41.1407C127.835 40.3699 127.457 39.2996 127.457 37.9298C127.457 36.5652 127.827 35.5027 128.566 34.7423C129.306 33.9767 130.342 33.5939 131.676 33.5939C134.181 33.5939 135.434 35.0131 135.434 37.8517V38.3985H129.793ZM133.23 37.0079C133.163 35.8413 132.65 35.2579 131.691 35.2579C131.16 35.2579 130.741 35.4038 130.434 35.6954C130.131 35.9819 129.934 36.4194 129.84 37.0079H133.23Z" fill="white"/>
<defs>
<linearGradient id="paint0_linear_82_100" x1="21.8455" y1="18.425" x2="44.5377" y2="48.1494" gradientUnits="userSpaceOnUse">
<stop stop-color="#E5E5E5"/>
<stop offset="1" stop-color="white"/>
</linearGradient>
</defs>
</svg>
