<svg width="1440" height="892" viewBox="0 0 1440 892" fill="none" xmlns="http://www.w3.org/2000/svg">
<path opacity="0.06" d="M1343.82 442.36C1293.71 436.303 1243.34 407.529 1195 424.058C1159.34 436.236 1131.73 472.841 1120.89 514.61C1110.06 556.396 1114.68 602.395 1128.85 642.846C1157.39 724.392 1225.87 784.628 1300.41 793.703C1346.19 799.277 1392.77 786.685 1434.08 762.931C1475.39 739.162 1511.68 704.616 1543.59 665.707C1572.16 630.896 1597.76 591.881 1613.62 547.247C1629.5 502.603 1635.06 451.778 1623.53 405.265C1614.7 369.643 1595.1 336.924 1568.2 317.109C1549.69 303.467 1545.18 300.955 1534.87 322.665C1527.57 338.061 1518.99 352.414 1508.91 365.478C1467.82 418.747 1405.18 449.781 1343.82 442.36Z" fill="url(#paint0_linear_650_5647)"/>
<path opacity="0.06" d="M215.182 163.218C265.292 157.161 315.658 128.387 363.998 144.917C399.659 157.095 427.27 193.7 438.11 235.469C448.942 277.254 444.315 323.254 430.152 363.705C401.613 445.25 333.126 505.487 258.594 514.561C212.81 520.136 166.231 507.543 124.917 483.79C83.6114 460.021 47.3233 425.475 15.4064 386.566C-13.1616 351.755 -38.7629 312.739 -54.6244 268.105C-70.4994 223.462 -76.0609 172.636 -64.5327 126.124C-55.7018 90.5021 -36.0962 57.7827 -9.20102 37.9675C9.30896 24.3261 13.8209 21.8136 24.1262 43.5232C31.4337 58.9196 40.01 73.2725 50.0871 86.3368C91.1756 139.606 153.824 170.639 215.182 163.218Z" fill="url(#paint1_linear_650_5647)"/>
<path d="M1158.79 197.254C1157.83 197.254 1157.04 196.338 1157.04 195.198C1157.04 194.068 1157.82 193.141 1158.79 193.141C1159.76 193.141 1160.54 194.058 1160.54 195.198C1160.54 196.327 1159.75 197.254 1158.79 197.254Z" fill="#0B315E"/>
<path d="M1175.24 197.254C1174.28 197.254 1173.49 196.338 1173.49 195.198C1173.49 194.068 1174.27 193.141 1175.24 193.141C1176.2 193.141 1176.99 194.058 1176.99 195.198C1176.98 196.327 1176.2 197.254 1175.24 197.254Z" fill="#0B315E"/>
<path d="M1191.68 197.254C1190.72 197.254 1189.93 196.338 1189.93 195.198C1189.93 194.068 1190.71 193.141 1191.68 193.141C1192.64 193.141 1193.43 194.058 1193.43 195.198C1193.43 196.327 1192.65 197.254 1191.68 197.254Z" fill="#0B315E"/>
<path d="M1208.13 197.254C1207.17 197.254 1206.38 196.338 1206.38 195.198C1206.38 194.068 1207.16 193.141 1208.13 193.141C1209.09 193.141 1209.88 194.058 1209.88 195.198C1209.88 196.327 1209.09 197.254 1208.13 197.254Z" fill="#0B315E"/>
<path d="M1224.57 197.254C1223.61 197.254 1222.82 196.338 1222.82 195.198C1222.82 194.068 1223.6 193.141 1224.57 193.141C1225.53 193.141 1226.32 194.058 1226.32 195.198C1226.32 196.327 1225.54 197.254 1224.57 197.254Z" fill="#0B315E"/>
<path d="M1241.02 197.254C1240.06 197.254 1239.27 196.338 1239.27 195.198C1239.27 194.068 1240.05 193.141 1241.02 193.141C1241.99 193.141 1242.77 194.058 1242.77 195.198C1242.77 196.327 1241.98 197.254 1241.02 197.254Z" fill="#0B315E"/>
<path d="M1158.79 214.876C1157.83 214.876 1157.04 213.96 1157.04 212.82C1157.04 211.691 1157.82 210.764 1158.79 210.764C1159.76 210.764 1160.54 211.68 1160.54 212.82C1160.54 213.949 1159.75 214.876 1158.79 214.876Z" fill="#0B315E"/>
<path d="M1175.24 214.876C1174.28 214.876 1173.49 213.96 1173.49 212.82C1173.49 211.691 1174.27 210.764 1175.24 210.764C1176.2 210.764 1176.99 211.68 1176.99 212.82C1176.98 213.949 1176.2 214.876 1175.24 214.876Z" fill="#0B315E"/>
<path d="M1191.68 214.876C1190.72 214.876 1189.93 213.96 1189.93 212.82C1189.93 211.691 1190.71 210.764 1191.68 210.764C1192.64 210.764 1193.43 211.68 1193.43 212.82C1193.43 213.949 1192.65 214.876 1191.68 214.876Z" fill="#0B315E"/>
<path d="M1208.13 214.876C1207.17 214.876 1206.38 213.96 1206.38 212.82C1206.38 211.691 1207.16 210.764 1208.13 210.764C1209.09 210.764 1209.88 211.68 1209.88 212.82C1209.88 213.949 1209.09 214.876 1208.13 214.876Z" fill="#0B315E"/>
<path d="M1224.57 214.876C1223.61 214.876 1222.82 213.96 1222.82 212.82C1222.82 211.691 1223.6 210.764 1224.57 210.764C1225.53 210.764 1226.32 211.68 1226.32 212.82C1226.32 213.949 1225.54 214.876 1224.57 214.876Z" fill="#0B315E"/>
<path d="M1241.02 214.876C1240.06 214.876 1239.27 213.96 1239.27 212.82C1239.27 211.691 1240.05 210.764 1241.02 210.764C1241.99 210.764 1242.77 211.68 1242.77 212.82C1242.77 213.949 1241.98 214.876 1241.02 214.876Z" fill="#0B315E"/>
<path d="M1158.79 232.488C1157.83 232.488 1157.04 231.572 1157.04 230.432C1157.04 229.302 1157.82 228.375 1158.79 228.375C1159.76 228.375 1160.54 229.292 1160.54 230.432C1160.54 231.572 1159.75 232.488 1158.79 232.488Z" fill="#0B315E"/>
<path d="M1175.24 232.488C1174.28 232.488 1173.49 231.572 1173.49 230.432C1173.49 229.302 1174.27 228.375 1175.24 228.375C1176.2 228.375 1176.99 229.292 1176.99 230.432C1176.98 231.572 1176.2 232.488 1175.24 232.488Z" fill="#0B315E"/>
<path d="M1191.68 232.488C1190.72 232.488 1189.93 231.572 1189.93 230.432C1189.93 229.302 1190.71 228.375 1191.68 228.375C1192.64 228.375 1193.43 229.292 1193.43 230.432C1193.43 231.572 1192.65 232.488 1191.68 232.488Z" fill="#0B315E"/>
<path d="M1208.13 232.488C1207.17 232.488 1206.38 231.572 1206.38 230.432C1206.38 229.302 1207.16 228.375 1208.13 228.375C1209.09 228.375 1209.88 229.292 1209.88 230.432C1209.88 231.572 1209.09 232.488 1208.13 232.488Z" fill="#0B315E"/>
<path d="M1224.57 232.488C1223.61 232.488 1222.82 231.572 1222.82 230.432C1222.82 229.302 1223.6 228.375 1224.57 228.375C1225.53 228.375 1226.32 229.292 1226.32 230.432C1226.32 231.572 1225.54 232.488 1224.57 232.488Z" fill="#0B315E"/>
<path d="M1241.02 232.488C1240.06 232.488 1239.27 231.572 1239.27 230.432C1239.27 229.302 1240.05 228.375 1241.02 228.375C1241.99 228.375 1242.77 229.292 1242.77 230.432C1242.77 231.572 1241.98 232.488 1241.02 232.488Z" fill="#0B315E"/>
<path d="M1158.79 250.11C1157.83 250.11 1157.04 249.194 1157.04 248.054C1157.04 246.924 1157.82 245.997 1158.79 245.997C1159.76 245.997 1160.54 246.914 1160.54 248.054C1160.54 249.183 1159.75 250.11 1158.79 250.11Z" fill="#0B315E"/>
<path d="M1175.24 250.11C1174.28 250.11 1173.49 249.194 1173.49 248.054C1173.49 246.924 1174.27 245.997 1175.24 245.997C1176.2 245.997 1176.99 246.914 1176.99 248.054C1176.98 249.183 1176.2 250.11 1175.24 250.11Z" fill="#0B315E"/>
<path d="M1191.68 250.11C1190.72 250.11 1189.93 249.194 1189.93 248.054C1189.93 246.924 1190.71 245.997 1191.68 245.997C1192.64 245.997 1193.43 246.914 1193.43 248.054C1193.43 249.183 1192.65 250.11 1191.68 250.11Z" fill="#0B315E"/>
<path d="M1208.13 250.11C1207.17 250.11 1206.38 249.194 1206.38 248.054C1206.38 246.924 1207.16 245.997 1208.13 245.997C1209.09 245.997 1209.88 246.914 1209.88 248.054C1209.88 249.183 1209.09 250.11 1208.13 250.11Z" fill="#0B315E"/>
<path d="M1224.57 250.11C1223.61 250.11 1222.82 249.194 1222.82 248.054C1222.82 246.924 1223.6 245.997 1224.57 245.997C1225.53 245.997 1226.32 246.914 1226.32 248.054C1226.32 249.183 1225.54 250.11 1224.57 250.11Z" fill="#0B315E"/>
<path d="M1241.02 250.11C1240.06 250.11 1239.27 249.194 1239.27 248.054C1239.27 246.924 1240.05 245.997 1241.02 245.997C1241.99 245.997 1242.77 246.914 1242.77 248.054C1242.77 249.183 1241.98 250.11 1241.02 250.11Z" fill="#0B315E"/>
<path d="M1158.79 267.732C1157.83 267.732 1157.04 266.815 1157.04 265.675C1157.04 264.546 1157.82 263.619 1158.79 263.619C1159.76 263.619 1160.54 264.535 1160.54 265.675C1160.54 266.805 1159.75 267.732 1158.79 267.732Z" fill="#0B315E"/>
<path d="M1175.24 267.732C1174.28 267.732 1173.49 266.815 1173.49 265.675C1173.49 264.546 1174.27 263.619 1175.24 263.619C1176.2 263.619 1176.99 264.535 1176.99 265.675C1176.98 266.805 1176.2 267.732 1175.24 267.732Z" fill="#0B315E"/>
<path d="M1191.68 267.732C1190.72 267.732 1189.93 266.815 1189.93 265.675C1189.93 264.546 1190.71 263.619 1191.68 263.619C1192.64 263.619 1193.43 264.535 1193.43 265.675C1193.43 266.805 1192.65 267.732 1191.68 267.732Z" fill="#0B315E"/>
<path d="M1208.13 267.732C1207.17 267.732 1206.38 266.815 1206.38 265.675C1206.38 264.546 1207.16 263.619 1208.13 263.619C1209.09 263.619 1209.88 264.535 1209.88 265.675C1209.88 266.805 1209.09 267.732 1208.13 267.732Z" fill="#0B315E"/>
<path d="M1224.57 267.732C1223.61 267.732 1222.82 266.815 1222.82 265.675C1222.82 264.546 1223.6 263.619 1224.57 263.619C1225.53 263.619 1226.32 264.535 1226.32 265.675C1226.32 266.805 1225.54 267.732 1224.57 267.732Z" fill="#0B315E"/>
<path d="M1241.02 267.732C1240.06 267.732 1239.27 266.815 1239.27 265.675C1239.27 264.546 1240.05 263.619 1241.02 263.619C1241.99 263.619 1242.77 264.535 1242.77 265.675C1242.77 266.805 1241.98 267.732 1241.02 267.732Z" fill="#0B315E"/>
<path d="M1158.79 285.343C1157.83 285.343 1157.04 284.427 1157.04 283.287C1157.04 282.158 1157.82 281.231 1158.79 281.231C1159.76 281.231 1160.54 282.147 1160.54 283.287C1160.54 284.427 1159.75 285.343 1158.79 285.343Z" fill="#0B315E"/>
<path d="M1175.24 285.343C1174.28 285.343 1173.49 284.427 1173.49 283.287C1173.49 282.158 1174.27 281.231 1175.24 281.231C1176.2 281.231 1176.99 282.147 1176.99 283.287C1176.98 284.427 1176.2 285.343 1175.24 285.343Z" fill="#0B315E"/>
<path d="M1191.68 285.343C1190.72 285.343 1189.93 284.427 1189.93 283.287C1189.93 282.158 1190.71 281.231 1191.68 281.231C1192.64 281.231 1193.43 282.147 1193.43 283.287C1193.43 284.427 1192.65 285.343 1191.68 285.343Z" fill="#0B315E"/>
<path d="M1208.13 285.343C1207.17 285.343 1206.38 284.427 1206.38 283.287C1206.38 282.158 1207.16 281.231 1208.13 281.231C1209.09 281.231 1209.88 282.147 1209.88 283.287C1209.88 284.427 1209.09 285.343 1208.13 285.343Z" fill="#0B315E"/>
<path d="M1224.57 285.343C1223.61 285.343 1222.82 284.427 1222.82 283.287C1222.82 282.158 1223.6 281.231 1224.57 281.231C1225.53 281.231 1226.32 282.147 1226.32 283.287C1226.32 284.427 1225.54 285.343 1224.57 285.343Z" fill="#0B315E"/>
<path d="M1241.02 285.343C1240.06 285.343 1239.27 284.427 1239.27 283.287C1239.27 282.158 1240.05 281.231 1241.02 281.231C1241.99 281.231 1242.77 282.147 1242.77 283.287C1242.77 284.427 1241.98 285.343 1241.02 285.343Z" fill="#0B315E"/>
<path d="M1228.06 299.162L1150.94 208.547H1228.06V299.162Z" fill="#FF9D00"/>
<defs>
<linearGradient id="paint0_linear_650_5647" x1="1291.53" y1="352.991" x2="1530.49" y2="697.327" gradientUnits="userSpaceOnUse">
<stop stop-color="#7ED4EF"/>
<stop offset="0.2294" stop-color="#66BFE6"/>
<stop offset="0.711" stop-color="#298BD0"/>
<stop offset="1" stop-color="#0169C2"/>
</linearGradient>
<linearGradient id="paint1_linear_650_5647" x1="267.467" y1="73.8494" x2="28.5102" y2="418.186" gradientUnits="userSpaceOnUse">
<stop stop-color="#7ED4EF"/>
<stop offset="0.2294" stop-color="#66BFE6"/>
<stop offset="0.711" stop-color="#298BD0"/>
<stop offset="1" stop-color="#0169C2"/>
</linearGradient>
</defs>
</svg>
