<svg width="185" height="64" viewBox="0 0 185 64" fill="none" xmlns="http://www.w3.org/2000/svg">
<rect width="185" height="64" rx="10" fill="#0D0D0D"/>
<path d="M39.7771 36.5589C43.29 34.6301 45.9532 33.1603 46.1827 33.0461C46.9171 32.6555 47.6754 31.622 46.1827 30.8191C45.7008 30.5667 43.1061 29.1426 39.7771 27.3063L35.1622 31.9669L39.7771 36.5589Z" fill="#FFD900"/>
<path d="M35.1624 31.9668L20.468 46.7765C20.8129 46.8222 21.2023 46.7308 21.6614 46.4784C22.6253 45.9508 32.843 40.3709 39.7773 36.56L35.1624 31.9668Z" fill="#F43249"/>
<path d="M35.1624 31.9668L39.7773 27.3291C39.7773 27.3291 22.695 18.0068 21.6614 17.4563C21.272 17.2256 20.8358 17.1571 20.4452 17.2256L35.1624 31.9668Z" fill="#00EE76"/>
<path d="M35.1622 31.9671L20.445 17.2259C19.8477 17.3641 19.343 17.8917 19.343 18.9709C19.343 20.6931 19.343 43.6078 19.343 45.0319C19.343 46.0197 19.7335 46.7312 20.4678 46.7997L35.1622 31.9671Z" fill="#00D3FF"/>
<path d="M63.6427 19.4757C63.6427 20.2757 63.4054 20.913 62.9307 21.3877C62.3974 21.953 61.6961 22.2357 60.8267 22.2357C59.9947 22.2357 59.2907 21.9477 58.7147 21.3717C58.1387 20.7957 57.8507 20.0863 57.8507 19.2437C57.8507 18.401 58.1387 17.6917 58.7147 17.1157C59.2907 16.5397 59.9947 16.2517 60.8267 16.2517C61.2481 16.2517 61.6454 16.3263 62.0187 16.4757C62.3921 16.625 62.6987 16.8357 62.9387 17.1077L62.4107 17.6357C62.2347 17.4223 62.0054 17.257 61.7227 17.1397C61.4454 17.017 61.1467 16.9557 60.8267 16.9557C60.2027 16.9557 59.6747 17.1717 59.2427 17.6037C58.8161 18.041 58.6027 18.5877 58.6027 19.2437C58.6027 19.8997 58.8161 20.4463 59.2427 20.8837C59.6747 21.3157 60.2027 21.5317 60.8267 21.5317C61.3974 21.5317 61.8721 21.3717 62.2507 21.0517C62.6294 20.7317 62.8481 20.2917 62.9067 19.7317H60.8267V19.0437H63.6027C63.6294 19.193 63.6427 19.337 63.6427 19.4757ZM68.009 16.3797V17.0837H65.401V18.8997H67.753V19.5877H65.401V21.4037H68.009V22.1077H64.665V16.3797H68.009ZM71.0809 17.0837V22.1077H70.3449V17.0837H68.7449V16.3797H72.6809V17.0837H71.0809ZM76.1991 22.1077H75.4631V16.3797H76.1991V22.1077ZM78.2177 22.1077H77.4817V16.3797H78.3777L81.1617 20.8357H81.1937L81.1617 19.7317V16.3797H81.8977V22.1077H81.1297L78.2177 17.4357H78.1857L78.2177 18.5397V22.1077ZM90.5176 19.2437C90.5176 20.0917 90.2349 20.801 89.6696 21.3717C89.0989 21.9477 88.4002 22.2357 87.5736 22.2357C86.7416 22.2357 86.0429 21.9477 85.4776 21.3717C84.9122 20.801 84.6296 20.0917 84.6296 19.2437C84.6296 18.3957 84.9122 17.6863 85.4776 17.1157C86.0429 16.5397 86.7416 16.2517 87.5736 16.2517C88.4056 16.2517 89.1042 16.5423 89.6696 17.1237C90.2349 17.6943 90.5176 18.401 90.5176 19.2437ZM85.3816 19.2437C85.3816 19.905 85.5896 20.4517 86.0056 20.8837C86.4269 21.3157 86.9496 21.5317 87.5736 21.5317C88.1976 21.5317 88.7176 21.3157 89.1336 20.8837C89.5549 20.457 89.7656 19.9103 89.7656 19.2437C89.7656 18.577 89.5549 18.0303 89.1336 17.6037C88.7176 17.1717 88.1976 16.9557 87.5736 16.9557C86.9496 16.9557 86.4269 17.1717 86.0056 17.6037C85.5896 18.0357 85.3816 18.5823 85.3816 19.2437ZM92.2501 22.1077H91.5141V16.3797H92.4101L95.1941 20.8357H95.2261L95.1941 19.7317V16.3797H95.9301V22.1077H95.1621L92.2501 17.4357H92.2181L92.2501 18.5397V22.1077Z" fill="white"/>
<path d="M88.0696 31.7984C85.4292 31.7984 83.2479 33.8415 83.2479 36.6429C83.2479 39.4214 85.4064 41.4873 88.0696 41.4873C90.7328 41.4873 92.8912 39.4443 92.8912 36.6429C92.8912 33.8415 90.7328 31.7984 88.0696 31.7984ZM88.0696 39.5596C86.6226 39.5596 85.3607 38.3422 85.3607 36.6212C85.3607 34.8762 86.6238 33.6828 88.0696 33.6828C89.5154 33.6828 90.7784 34.8762 90.7784 36.6212C90.7784 38.3422 89.5154 39.5596 88.0696 39.5596ZM77.5767 31.7984C74.9135 31.7984 72.7551 33.8415 72.7551 36.6429C72.7551 39.4214 74.9135 41.4873 77.5767 41.4873C80.2399 41.4873 82.3983 39.4443 82.3983 36.6429C82.3983 33.8415 80.2399 31.7984 77.5767 31.7984ZM77.5767 39.5596C76.1297 39.5596 74.8678 38.3422 74.8678 36.6212C74.8678 34.8762 76.1309 33.6828 77.5767 33.6828C79.0236 33.6828 80.2855 34.8762 80.2855 36.6212C80.2855 38.3422 79.0453 39.5596 77.5767 39.5596ZM65.1092 33.291V35.3341H69.9765C69.8383 36.4818 69.4489 37.3315 68.8745 37.906C68.163 38.6174 67.0609 39.3986 65.1092 39.3986C62.1011 39.3986 59.7828 36.9649 59.7828 33.9568C59.7828 30.9488 62.1023 28.4694 65.1092 28.4694C66.7389 28.4694 67.9106 29.1124 68.7831 29.9392L70.2289 28.4923C69.0115 27.3217 67.3818 26.4264 65.1092 26.4264C60.9991 26.4264 57.5547 29.801 57.5547 33.9112C57.5547 38.0213 60.9991 41.396 65.1092 41.396C67.3362 41.396 68.9898 40.6616 70.3214 39.2832C71.6758 37.9288 72.0893 36.0228 72.0893 34.4845C72.0893 34.0025 72.0436 33.5663 71.9739 33.1985L65.1092 33.291ZM116.127 34.875C115.736 33.7958 114.497 31.7984 112.017 31.7984C109.536 31.7984 107.493 33.7501 107.493 36.6429C107.493 39.3517 109.536 41.4873 112.246 41.4873C114.45 41.4873 115.713 40.1329 116.241 39.3517L114.611 38.2497C114.06 39.0537 113.325 39.5813 112.246 39.5813C111.167 39.5813 110.41 39.0994 109.927 38.1115L116.332 35.4255L116.127 34.875ZM109.606 36.5058C109.56 34.6455 111.053 33.6816 112.108 33.6816C112.958 33.6816 113.646 34.095 113.899 34.7151L109.606 36.5058ZM104.394 41.1664H106.506V26.9768H104.394V41.1664ZM100.95 32.8776H100.882C100.4 32.3032 99.5046 31.7984 98.3557 31.7984C95.9449 31.7984 93.7637 33.934 93.7637 36.6429C93.7637 39.3517 95.9678 41.4645 98.3557 41.4645C99.5035 41.4645 100.399 40.9597 100.882 40.3624H100.95V41.0511C100.95 42.9114 99.9626 43.8981 98.3786 43.8981C97.0927 43.8981 96.2887 42.9571 95.9678 42.176L94.1314 42.9571C94.659 44.243 96.0603 45.827 98.3786 45.827C100.858 45.827 102.948 44.3572 102.948 40.7987V32.0965H100.95V32.8776ZM98.5396 39.5596C97.0927 39.5596 95.8764 38.3422 95.8764 36.644C95.8764 34.9458 97.0938 33.7056 98.5396 33.7056C99.9637 33.7056 101.111 34.9458 101.111 36.644C101.11 38.3194 99.9626 39.5596 98.5396 39.5596ZM125.977 26.9768H120.926V41.1664H123.038V35.7932H125.977C128.319 35.7932 130.614 34.0939 130.614 31.385C130.614 28.6761 128.319 26.9768 125.977 26.9768ZM126.045 33.8198H123.06V28.9514H126.045C127.606 28.9514 128.525 30.2601 128.525 31.385C128.503 32.4871 127.607 33.8198 126.045 33.8198ZM139.041 31.7756C137.526 31.7756 135.942 32.4414 135.299 33.9568L137.159 34.738C137.573 33.9568 138.307 33.7045 139.088 33.7045C140.19 33.7045 141.292 34.3703 141.315 35.5408V35.679C140.925 35.4495 140.122 35.1274 139.111 35.1274C137.091 35.1274 135.047 36.2523 135.047 38.3194C135.047 40.2254 136.7 41.4416 138.537 41.4416C139.961 41.4416 140.741 40.7987 141.223 40.0415H141.291V41.1436H143.334V35.7018C143.311 33.1997 141.452 31.7756 139.041 31.7756ZM138.789 39.5368C138.1 39.5368 137.135 39.1919 137.135 38.3433C137.135 37.2413 138.329 36.8279 139.362 36.8279C140.28 36.8279 140.717 37.0346 141.291 37.3098C141.13 38.6186 140.005 39.5368 138.789 39.5368ZM150.705 32.0976L148.294 38.228H148.226L145.723 32.0976H143.451L147.216 40.6845L145.08 45.4833H147.285L153.047 32.0976H150.705ZM131.786 41.1664H133.899V26.9768H131.786V41.1664Z" fill="#EDEDED"/>
</svg>
