<svg width="1162" height="334" viewBox="0 0 1162 334" fill="none" xmlns="http://www.w3.org/2000/svg">
<mask id="mask0_338_7048" style="mask-type:alpha" maskUnits="userSpaceOnUse" x="0" y="0" width="1162" height="334">
<rect width="1162" height="334" rx="30" fill="#C4C4C4"/>
</mask>
<g mask="url(#mask0_338_7048)">
<rect width="1162" height="334" rx="30" fill="url(#paint0_linear_338_7048)"/>
<path opacity="0.06" d="M223.098 241.829C241.277 213.896 277.942 188.914 277.341 158.917C276.911 136.789 254.544 115.95 223.55 104.032C192.541 92.1169 154.022 88.4992 117.476 91.1106C43.8058 96.3687 -23.1655 127.459 -50.2582 168.998C-66.9008 194.513 -69.0249 222.963 -60.7063 249.914C-52.3727 276.862 -33.9733 302.399 -10.8791 326.024C9.77915 347.167 34.632 367.181 66.619 382.372C98.6101 397.571 138.344 407.695 179.107 407.422C210.326 407.212 242.044 400.422 265.231 387.689C281.192 378.926 284.424 376.679 269.551 367.804C259.004 361.51 249.638 354.631 241.714 347.065C209.406 316.219 200.835 276.032 223.098 241.829Z" fill="url(#paint1_linear_338_7048)"/>
<path opacity="0.06" d="M445.146 184.895C424.673 228.355 375.778 269.014 383.954 313.921C389.966 347.049 428.542 376.32 477.886 391.463C527.252 406.601 585.862 408.644 640.004 401.524C749.145 387.18 841.981 334.705 872.514 270.071C891.27 230.368 887.554 187.541 868.55 147.878C849.525 108.219 815.754 71.5576 775.411 38.176C739.321 8.29892 697.218 -19.5177 645.592 -39.4788C593.958 -59.4531 531.95 -71.1401 470.921 -67.155C424.182 -64.1012 378.288 -51.1421 346.624 -30.0233C324.827 -15.4893 320.528 -11.8383 344.971 0.159057C362.306 8.66667 378.012 18.156 391.723 28.7995C447.626 72.1975 470.22 131.678 445.146 184.895Z" fill="url(#paint2_linear_338_7048)"/>
</g>
<path d="M98.2188 116.876H107.777C111.922 116.876 115.05 117.477 117.159 118.678C119.269 119.879 120.323 121.952 120.323 124.896C120.323 126.126 120.104 127.24 119.664 128.236C119.239 129.217 118.617 130.03 117.796 130.675C116.976 131.305 115.965 131.729 114.764 131.949V132.169C116.009 132.389 117.115 132.777 118.082 133.333C119.063 133.89 119.833 134.688 120.389 135.729C120.96 136.769 121.246 138.116 121.246 139.771C121.246 141.734 120.777 143.404 119.84 144.781C118.917 146.158 117.591 147.206 115.863 147.923C114.149 148.641 112.113 149 109.754 149H98.2188V116.876ZM103.492 130.125H108.546C110.934 130.125 112.589 129.737 113.512 128.961C114.435 128.185 114.896 127.049 114.896 125.555C114.896 124.032 114.347 122.933 113.248 122.259C112.164 121.585 110.436 121.249 108.062 121.249H103.492V130.125ZM103.492 134.388V144.583H109.051C111.512 144.583 113.241 144.107 114.237 143.155C115.233 142.203 115.731 140.914 115.731 139.288C115.731 138.292 115.504 137.428 115.05 136.695C114.61 135.963 113.885 135.399 112.875 135.003C111.864 134.593 110.501 134.388 108.788 134.388H103.492ZM137.179 124.215C139.347 124.215 141.208 124.662 142.76 125.555C144.313 126.449 145.507 127.716 146.342 129.356C147.177 130.997 147.594 132.96 147.594 135.245V138.014H131.357C131.415 140.372 132.045 142.188 133.246 143.463C134.462 144.737 136.161 145.375 138.344 145.375C139.897 145.375 141.288 145.228 142.519 144.935C143.764 144.627 145.046 144.181 146.364 143.595V147.792C145.148 148.363 143.91 148.78 142.651 149.044C141.391 149.308 139.882 149.439 138.124 149.439C135.737 149.439 133.635 148.978 131.818 148.055C130.016 147.118 128.603 145.726 127.577 143.88C126.567 142.035 126.061 139.742 126.061 137.003C126.061 134.278 126.523 131.964 127.446 130.06C128.368 128.155 129.665 126.705 131.335 125.709C133.005 124.713 134.953 124.215 137.179 124.215ZM137.179 128.104C135.553 128.104 134.235 128.631 133.224 129.686C132.228 130.741 131.642 132.286 131.467 134.322H142.541C142.526 133.106 142.321 132.03 141.926 131.092C141.545 130.155 140.959 129.422 140.168 128.895C139.391 128.368 138.395 128.104 137.179 128.104ZM165.879 124.215C166.289 124.215 166.736 124.237 167.219 124.281C167.703 124.325 168.12 124.383 168.472 124.457L167.988 129.291C167.681 129.203 167.3 129.137 166.846 129.093C166.406 129.049 166.011 129.027 165.659 129.027C164.736 129.027 163.857 129.181 163.022 129.488C162.187 129.781 161.448 130.235 160.803 130.851C160.159 131.451 159.653 132.206 159.287 133.114C158.921 134.022 158.738 135.077 158.738 136.278V149H153.552V124.676H157.595L158.298 128.961H158.54C159.023 128.097 159.624 127.306 160.342 126.588C161.06 125.87 161.88 125.299 162.803 124.874C163.74 124.435 164.766 124.215 165.879 124.215ZM180.054 159.811C176.759 159.811 174.232 159.217 172.474 158.031C170.716 156.844 169.837 155.182 169.837 153.043C169.837 151.549 170.306 150.282 171.243 149.242C172.181 148.216 173.521 147.506 175.264 147.11C174.605 146.817 174.034 146.363 173.551 145.748C173.082 145.118 172.847 144.422 172.847 143.661C172.847 142.752 173.104 141.976 173.616 141.332C174.129 140.687 174.898 140.064 175.924 139.464C174.649 138.922 173.624 138.043 172.847 136.827C172.086 135.597 171.705 134.154 171.705 132.499C171.705 130.741 172.078 129.247 172.825 128.016C173.572 126.771 174.664 125.826 176.099 125.182C177.535 124.522 179.271 124.193 181.307 124.193C181.746 124.193 182.222 124.222 182.735 124.281C183.262 124.325 183.746 124.383 184.185 124.457C184.639 124.515 184.984 124.581 185.218 124.654H193.634V127.533L189.503 128.302C189.898 128.858 190.213 129.496 190.447 130.213C190.682 130.917 190.799 131.686 190.799 132.521C190.799 135.04 189.927 137.025 188.184 138.475C186.456 139.911 184.068 140.628 181.021 140.628C180.289 140.599 179.578 140.541 178.89 140.453C178.363 140.775 177.96 141.134 177.681 141.529C177.403 141.91 177.264 142.342 177.264 142.826C177.264 143.221 177.403 143.543 177.681 143.792C177.96 144.027 178.37 144.203 178.912 144.32C179.468 144.437 180.142 144.496 180.933 144.496H185.13C187.796 144.496 189.832 145.06 191.238 146.188C192.645 147.315 193.348 148.971 193.348 151.153C193.348 153.922 192.205 156.053 189.92 157.547C187.635 159.056 184.346 159.811 180.054 159.811ZM180.252 156.185C182.054 156.185 183.57 156.009 184.801 155.658C186.031 155.306 186.961 154.801 187.591 154.142C188.221 153.497 188.536 152.728 188.536 151.834C188.536 151.043 188.338 150.436 187.943 150.011C187.547 149.586 186.954 149.293 186.163 149.132C185.372 148.971 184.39 148.89 183.218 148.89H179.395C178.443 148.89 177.601 149.037 176.868 149.33C176.136 149.637 175.565 150.077 175.155 150.648C174.759 151.219 174.561 151.908 174.561 152.713C174.561 153.827 175.052 154.684 176.033 155.284C177.03 155.885 178.436 156.185 180.252 156.185ZM181.263 137.245C182.772 137.245 183.892 136.834 184.625 136.014C185.357 135.179 185.723 134.007 185.723 132.499C185.723 130.858 185.342 129.627 184.581 128.807C183.834 127.987 182.72 127.577 181.241 127.577C179.791 127.577 178.685 127.994 177.923 128.829C177.176 129.664 176.802 130.902 176.802 132.542C176.802 134.022 177.176 135.179 177.923 136.014C178.685 136.834 179.798 137.245 181.263 137.245ZM207.743 124.215C210.819 124.215 213.141 124.896 214.708 126.258C216.29 127.621 217.082 129.745 217.082 132.63V149H213.412L212.423 145.55H212.248C211.559 146.429 210.849 147.154 210.116 147.726C209.384 148.297 208.534 148.722 207.567 149C206.615 149.293 205.451 149.439 204.074 149.439C202.623 149.439 201.327 149.176 200.185 148.648C199.042 148.106 198.141 147.286 197.482 146.188C196.823 145.089 196.493 143.697 196.493 142.013C196.493 139.508 197.423 137.625 199.284 136.366C201.159 135.106 203.986 134.41 207.765 134.278L211.984 134.125V132.85C211.984 131.166 211.588 129.964 210.797 129.247C210.021 128.529 208.922 128.17 207.501 128.17C206.286 128.17 205.106 128.346 203.964 128.697C202.821 129.049 201.708 129.481 200.624 129.994L198.954 126.346C200.141 125.716 201.488 125.204 202.997 124.808C204.52 124.413 206.103 124.215 207.743 124.215ZM211.962 137.376L208.82 137.486C206.242 137.574 204.433 138.014 203.393 138.805C202.353 139.596 201.832 140.68 201.832 142.057C201.832 143.258 202.191 144.137 202.909 144.693C203.627 145.235 204.572 145.506 205.744 145.506C207.531 145.506 209.01 145.001 210.182 143.99C211.369 142.965 211.962 141.463 211.962 139.486V137.376ZM229.609 114.811V123.05C229.609 124.002 229.58 124.94 229.521 125.863C229.477 126.771 229.433 127.481 229.389 127.994H229.609C230.268 126.939 231.184 126.053 232.356 125.335C233.542 124.603 235.058 124.237 236.904 124.237C239.79 124.237 242.112 125.299 243.869 127.423C245.627 129.532 246.506 132.66 246.506 136.805C246.506 139.559 246.103 141.874 245.298 143.749C244.492 145.624 243.357 147.044 241.892 148.011C240.442 148.963 238.735 149.439 236.772 149.439C234.926 149.439 233.432 149.103 232.29 148.429C231.162 147.74 230.276 146.942 229.631 146.034H229.258L228.313 149H224.446V114.811H229.609ZM235.542 128.434C234.077 128.434 232.912 128.727 232.048 129.312C231.198 129.898 230.583 130.777 230.202 131.949C229.821 133.106 229.624 134.579 229.609 136.366V136.827C229.609 139.537 230.034 141.61 230.883 143.045C231.748 144.481 233.315 145.199 235.586 145.199C237.387 145.199 238.772 144.474 239.738 143.023C240.705 141.559 241.189 139.464 241.189 136.739C241.189 133.985 240.705 131.913 239.738 130.521C238.786 129.129 237.387 128.434 235.542 128.434ZM273.821 124.676V149H269.756L269.053 145.726H268.768C268.255 146.561 267.603 147.257 266.812 147.813C266.021 148.355 265.142 148.758 264.175 149.022C263.208 149.3 262.19 149.439 261.121 149.439C259.29 149.439 257.723 149.132 256.419 148.517C255.13 147.887 254.141 146.92 253.453 145.616C252.764 144.312 252.42 142.628 252.42 140.562V124.676H257.605V139.596C257.605 141.485 257.986 142.899 258.748 143.836C259.524 144.774 260.726 145.243 262.352 145.243C263.919 145.243 265.164 144.92 266.087 144.276C267.01 143.631 267.662 142.679 268.042 141.419C268.438 140.16 268.636 138.614 268.636 136.783V124.676H273.821ZM294.039 124.215C296.779 124.215 298.91 124.925 300.433 126.346C301.971 127.752 302.74 130.016 302.74 133.136V149H297.577V134.103C297.577 132.213 297.189 130.799 296.412 129.862C295.636 128.91 294.435 128.434 292.809 128.434C290.45 128.434 288.81 129.159 287.887 130.609C286.979 132.059 286.525 134.161 286.525 136.915V149H281.361V124.676H285.382L286.107 127.972H286.393C286.92 127.123 287.572 126.427 288.348 125.885C289.139 125.328 290.018 124.911 290.985 124.632C291.966 124.354 292.985 124.215 294.039 124.215ZM317.048 159.811C313.752 159.811 311.225 159.217 309.467 158.031C307.709 156.844 306.83 155.182 306.83 153.043C306.83 151.549 307.299 150.282 308.237 149.242C309.174 148.216 310.515 147.506 312.258 147.11C311.599 146.817 311.027 146.363 310.544 145.748C310.075 145.118 309.841 144.422 309.841 143.661C309.841 142.752 310.097 141.976 310.61 141.332C311.122 140.687 311.892 140.064 312.917 139.464C311.643 138.922 310.617 138.043 309.841 136.827C309.079 135.597 308.698 134.154 308.698 132.499C308.698 130.741 309.072 129.247 309.819 128.016C310.566 126.771 311.657 125.826 313.093 125.182C314.528 124.522 316.264 124.193 318.3 124.193C318.74 124.193 319.216 124.222 319.728 124.281C320.256 124.325 320.739 124.383 321.179 124.457C321.633 124.515 321.977 124.581 322.211 124.654H330.627V127.533L326.496 128.302C326.892 128.858 327.206 129.496 327.441 130.213C327.675 130.917 327.792 131.686 327.792 132.521C327.792 135.04 326.921 137.025 325.178 138.475C323.449 139.911 321.061 140.628 318.015 140.628C317.282 140.599 316.572 140.541 315.883 140.453C315.356 140.775 314.953 141.134 314.675 141.529C314.396 141.91 314.257 142.342 314.257 142.826C314.257 143.221 314.396 143.543 314.675 143.792C314.953 144.027 315.363 144.203 315.905 144.32C316.462 144.437 317.136 144.496 317.927 144.496H322.123C324.789 144.496 326.826 145.06 328.232 146.188C329.638 147.315 330.341 148.971 330.341 151.153C330.341 153.922 329.199 156.053 326.913 157.547C324.628 159.056 321.34 159.811 317.048 159.811ZM317.246 156.185C319.047 156.185 320.563 156.009 321.794 155.658C323.024 155.306 323.955 154.801 324.584 154.142C325.214 153.497 325.529 152.728 325.529 151.834C325.529 151.043 325.331 150.436 324.936 150.011C324.54 149.586 323.947 149.293 323.156 149.132C322.365 148.971 321.384 148.89 320.212 148.89H316.389C315.436 148.89 314.594 149.037 313.862 149.33C313.129 149.637 312.558 150.077 312.148 150.648C311.752 151.219 311.555 151.908 311.555 152.713C311.555 153.827 312.045 154.684 313.027 155.284C314.023 155.885 315.429 156.185 317.246 156.185ZM318.256 137.245C319.765 137.245 320.886 136.834 321.618 136.014C322.351 135.179 322.717 134.007 322.717 132.499C322.717 130.858 322.336 129.627 321.574 128.807C320.827 127.987 319.714 127.577 318.234 127.577C316.784 127.577 315.678 127.994 314.916 128.829C314.169 129.664 313.796 130.902 313.796 132.542C313.796 134.022 314.169 135.179 314.916 136.014C315.678 136.834 316.791 137.245 318.256 137.245ZM373.634 132.63C373.634 136.249 372.96 139.273 371.612 141.705C370.265 144.122 368.309 145.946 365.746 147.176C363.182 148.392 360.091 149 356.473 149H347.552V116.876H357.44C360.765 116.876 363.636 117.477 366.053 118.678C368.47 119.864 370.338 121.629 371.656 123.973C372.975 126.302 373.634 129.188 373.634 132.63ZM368.141 132.784C368.141 130.147 367.723 127.979 366.888 126.28C366.068 124.581 364.852 123.321 363.241 122.501C361.644 121.666 359.674 121.249 357.33 121.249H352.826V144.583H356.561C360.443 144.583 363.343 143.595 365.262 141.617C367.181 139.64 368.141 136.695 368.141 132.784ZM389.853 124.215C392.021 124.215 393.881 124.662 395.434 125.555C396.986 126.449 398.18 127.716 399.015 129.356C399.85 130.997 400.268 132.96 400.268 135.245V138.014H384.03C384.089 140.372 384.718 142.188 385.92 143.463C387.135 144.737 388.835 145.375 391.017 145.375C392.57 145.375 393.962 145.228 395.192 144.935C396.437 144.627 397.719 144.181 399.037 143.595V147.792C397.821 148.363 396.584 148.78 395.324 149.044C394.064 149.308 392.555 149.439 390.797 149.439C388.41 149.439 386.308 148.978 384.491 148.055C382.69 147.118 381.276 145.726 380.251 143.88C379.24 142.035 378.734 139.742 378.734 137.003C378.734 134.278 379.196 131.964 380.119 130.06C381.042 128.155 382.338 126.705 384.008 125.709C385.678 124.713 387.626 124.215 389.853 124.215ZM389.853 128.104C388.227 128.104 386.908 128.631 385.898 129.686C384.901 130.741 384.316 132.286 384.14 134.322H395.214C395.199 133.106 394.994 132.03 394.599 131.092C394.218 130.155 393.632 129.422 392.841 128.895C392.065 128.368 391.068 128.104 389.853 128.104ZM418.904 124.215C421.643 124.215 423.774 124.925 425.298 126.346C426.836 127.752 427.605 130.016 427.605 133.136V149H422.441V134.103C422.441 132.213 422.053 130.799 421.277 129.862C420.5 128.91 419.299 128.434 417.673 128.434C415.315 128.434 413.674 129.159 412.751 130.609C411.843 132.059 411.389 134.161 411.389 136.915V149H406.225V124.676H410.246L410.972 127.972H411.257C411.785 127.123 412.436 126.427 413.213 125.885C414.004 125.328 414.883 124.911 415.849 124.632C416.831 124.354 417.849 124.215 418.904 124.215ZM441.912 159.811C438.616 159.811 436.089 159.217 434.332 158.031C432.574 156.844 431.695 155.182 431.695 153.043C431.695 151.549 432.164 150.282 433.101 149.242C434.039 148.216 435.379 147.506 437.122 147.11C436.463 146.817 435.892 146.363 435.408 145.748C434.94 145.118 434.705 144.422 434.705 143.661C434.705 142.752 434.962 141.976 435.474 141.332C435.987 140.687 436.756 140.064 437.781 139.464C436.507 138.922 435.482 138.043 434.705 136.827C433.943 135.597 433.563 134.154 433.563 132.499C433.563 130.741 433.936 129.247 434.683 128.016C435.43 126.771 436.522 125.826 437.957 125.182C439.393 124.522 441.129 124.193 443.165 124.193C443.604 124.193 444.08 124.222 444.593 124.281C445.12 124.325 445.604 124.383 446.043 124.457C446.497 124.515 446.841 124.581 447.076 124.654H455.491V127.533L451.36 128.302C451.756 128.858 452.071 129.496 452.305 130.213C452.54 130.917 452.657 131.686 452.657 132.521C452.657 135.04 451.785 137.025 450.042 138.475C448.314 139.911 445.926 140.628 442.879 140.628C442.147 140.599 441.436 140.541 440.748 140.453C440.22 140.775 439.818 141.134 439.539 141.529C439.261 141.91 439.122 142.342 439.122 142.826C439.122 143.221 439.261 143.543 439.539 143.792C439.818 144.027 440.228 144.203 440.77 144.32C441.326 144.437 442 144.496 442.791 144.496H446.988C449.654 144.496 451.69 145.06 453.096 146.188C454.503 147.315 455.206 148.971 455.206 151.153C455.206 153.922 454.063 156.053 451.778 157.547C449.493 159.056 446.204 159.811 441.912 159.811ZM442.11 156.185C443.912 156.185 445.428 156.009 446.658 155.658C447.889 155.306 448.819 154.801 449.449 154.142C450.079 153.497 450.394 152.728 450.394 151.834C450.394 151.043 450.196 150.436 449.8 150.011C449.405 149.586 448.812 149.293 448.021 149.132C447.23 148.971 446.248 148.89 445.076 148.89H441.253C440.301 148.89 439.459 149.037 438.726 149.33C437.994 149.637 437.422 150.077 437.012 150.648C436.617 151.219 436.419 151.908 436.419 152.713C436.419 153.827 436.91 154.684 437.891 155.284C438.887 155.885 440.294 156.185 442.11 156.185ZM443.121 137.245C444.63 137.245 445.75 136.834 446.483 136.014C447.215 135.179 447.581 134.007 447.581 132.499C447.581 130.858 447.2 129.627 446.439 128.807C445.692 127.987 444.578 127.577 443.099 127.577C441.649 127.577 440.543 127.994 439.781 128.829C439.034 129.664 438.66 130.902 438.66 132.542C438.66 134.022 439.034 135.179 439.781 136.014C440.543 136.834 441.656 137.245 443.121 137.245ZM469.601 124.215C472.677 124.215 474.999 124.896 476.566 126.258C478.148 127.621 478.939 129.745 478.939 132.63V149H475.27L474.281 145.55H474.105C473.417 146.429 472.706 147.154 471.974 147.726C471.242 148.297 470.392 148.722 469.425 149C468.473 149.293 467.308 149.439 465.932 149.439C464.481 149.439 463.185 149.176 462.042 148.648C460.9 148.106 459.999 147.286 459.34 146.188C458.681 145.089 458.351 143.697 458.351 142.013C458.351 139.508 459.281 137.625 461.141 136.366C463.016 135.106 465.844 134.41 469.623 134.278L473.842 134.125V132.85C473.842 131.166 473.446 129.964 472.655 129.247C471.879 128.529 470.78 128.17 469.359 128.17C468.143 128.17 466.964 128.346 465.822 128.697C464.679 129.049 463.566 129.481 462.482 129.994L460.812 126.346C461.998 125.716 463.346 125.204 464.855 124.808C466.378 124.413 467.96 124.215 469.601 124.215ZM473.82 137.376L470.678 137.486C468.099 137.574 466.29 138.014 465.25 138.805C464.21 139.596 463.69 140.68 463.69 142.057C463.69 143.258 464.049 144.137 464.767 144.693C465.485 145.235 466.43 145.506 467.601 145.506C469.389 145.506 470.868 145.001 472.04 143.99C473.226 142.965 473.82 141.463 473.82 139.486V137.376ZM498.982 124.215C501.721 124.215 503.852 124.925 505.376 126.346C506.914 127.752 507.683 130.016 507.683 133.136V149H502.519V134.103C502.519 132.213 502.131 130.799 501.355 129.862C500.578 128.91 499.377 128.434 497.751 128.434C495.393 128.434 493.752 129.159 492.829 130.609C491.921 132.059 491.467 134.161 491.467 136.915V149H486.303V124.676H490.324L491.049 127.972H491.335C491.862 127.123 492.514 126.427 493.291 125.885C494.082 125.328 494.961 124.911 495.927 124.632C496.909 124.354 497.927 124.215 498.982 124.215ZM122.718 212H116.654L106.656 197.41L103.492 199.981V212H98.2188V179.876H103.492V195.235C104.137 194.444 104.789 193.653 105.448 192.862C106.107 192.071 106.766 191.28 107.425 190.489L116.478 179.876H122.433L110.436 193.938L122.718 212ZM148.1 199.783C148.1 201.805 147.836 203.599 147.309 205.167C146.781 206.734 146.012 208.06 145.002 209.144C143.991 210.213 142.775 211.033 141.354 211.604C139.933 212.161 138.329 212.439 136.542 212.439C134.872 212.439 133.342 212.161 131.95 211.604C130.558 211.033 129.35 210.213 128.324 209.144C127.314 208.06 126.53 206.734 125.973 205.167C125.417 203.599 125.138 201.805 125.138 199.783C125.138 197.103 125.6 194.832 126.523 192.972C127.46 191.097 128.793 189.668 130.522 188.687C132.25 187.706 134.308 187.215 136.696 187.215C138.937 187.215 140.915 187.706 142.629 188.687C144.343 189.668 145.683 191.097 146.65 192.972C147.616 194.847 148.1 197.117 148.1 199.783ZM130.456 199.783C130.456 201.556 130.668 203.072 131.093 204.332C131.532 205.591 132.206 206.558 133.114 207.232C134.023 207.891 135.195 208.221 136.63 208.221C138.066 208.221 139.238 207.891 140.146 207.232C141.054 206.558 141.72 205.591 142.145 204.332C142.57 203.072 142.782 201.556 142.782 199.783C142.782 198.011 142.57 196.509 142.145 195.279C141.72 194.034 141.054 193.089 140.146 192.444C139.238 191.785 138.058 191.456 136.608 191.456C134.469 191.456 132.909 192.173 131.928 193.609C130.947 195.044 130.456 197.103 130.456 199.783ZM181.655 187.215C184.38 187.215 186.431 187.918 187.808 189.324C189.199 190.73 189.895 192.986 189.895 196.092V212H184.731V197.015C184.731 195.169 184.373 193.777 183.655 192.84C182.937 191.902 181.846 191.434 180.381 191.434C178.33 191.434 176.851 192.093 175.942 193.411C175.049 194.715 174.602 196.612 174.602 199.102V212H169.438V197.015C169.438 195.784 169.277 194.759 168.955 193.938C168.647 193.104 168.171 192.481 167.527 192.071C166.882 191.646 166.069 191.434 165.088 191.434C163.667 191.434 162.532 191.756 161.682 192.4C160.847 193.045 160.247 193.997 159.88 195.257C159.514 196.502 159.331 198.033 159.331 199.849V212H154.167V187.676H158.188L158.914 190.95H159.199C159.697 190.101 160.312 189.405 161.045 188.863C161.792 188.306 162.62 187.896 163.528 187.632C164.436 187.354 165.381 187.215 166.362 187.215C168.179 187.215 169.709 187.537 170.955 188.182C172.2 188.812 173.13 189.778 173.745 191.082H174.141C174.902 189.764 175.964 188.79 177.327 188.16C178.689 187.53 180.132 187.215 181.655 187.215ZM218.441 187.676V212H214.376L213.673 208.726H213.387C212.874 209.561 212.222 210.257 211.431 210.813C210.64 211.355 209.761 211.758 208.795 212.022C207.828 212.3 206.81 212.439 205.74 212.439C203.909 212.439 202.342 212.132 201.038 211.517C199.749 210.887 198.76 209.92 198.072 208.616C197.384 207.312 197.039 205.628 197.039 203.562V187.676H202.225V202.596C202.225 204.485 202.606 205.899 203.367 206.836C204.144 207.774 205.345 208.243 206.971 208.243C208.538 208.243 209.783 207.92 210.706 207.276C211.629 206.631 212.281 205.679 212.662 204.419C213.057 203.16 213.255 201.614 213.255 199.783V187.676H218.441ZM238.659 187.215C241.398 187.215 243.529 187.925 245.053 189.346C246.591 190.752 247.36 193.016 247.36 196.136V212H242.196V197.103C242.196 195.213 241.808 193.799 241.032 192.862C240.255 191.91 239.054 191.434 237.428 191.434C235.07 191.434 233.429 192.159 232.506 193.609C231.598 195.059 231.144 197.161 231.144 199.915V212H225.98V187.676H230.001L230.727 190.972H231.012C231.54 190.123 232.191 189.427 232.968 188.885C233.759 188.328 234.638 187.911 235.604 187.632C236.586 187.354 237.604 187.215 238.659 187.215ZM259.887 187.676V212H254.724V187.676H259.887ZM257.339 178.36C258.13 178.36 258.811 178.572 259.382 178.997C259.968 179.422 260.261 180.154 260.261 181.194C260.261 182.22 259.968 182.952 259.382 183.392C258.811 183.816 258.13 184.029 257.339 184.029C256.518 184.029 255.822 183.816 255.251 183.392C254.695 182.952 254.416 182.22 254.416 181.194C254.416 180.154 254.695 179.422 255.251 178.997C255.822 178.572 256.518 178.36 257.339 178.36ZM276.48 208.265C277.154 208.265 277.82 208.206 278.479 208.089C279.139 207.957 279.739 207.803 280.281 207.627V211.539C279.71 211.788 278.97 212 278.062 212.176C277.154 212.352 276.209 212.439 275.227 212.439C273.851 212.439 272.613 212.212 271.514 211.758C270.415 211.29 269.544 210.491 268.899 209.363C268.255 208.235 267.933 206.675 267.933 204.683V191.609H264.615V189.302L268.174 187.479L269.866 182.271H273.118V187.676H280.083V191.609H273.118V204.617C273.118 205.848 273.426 206.763 274.041 207.364C274.656 207.964 275.469 208.265 276.48 208.265ZM294.896 187.215C297.972 187.215 300.294 187.896 301.862 189.258C303.444 190.621 304.235 192.745 304.235 195.63V212H300.565L299.576 208.55H299.401C298.712 209.429 298.002 210.154 297.269 210.726C296.537 211.297 295.687 211.722 294.72 212C293.768 212.293 292.604 212.439 291.227 212.439C289.777 212.439 288.48 212.176 287.338 211.648C286.195 211.106 285.294 210.286 284.635 209.188C283.976 208.089 283.646 206.697 283.646 205.013C283.646 202.508 284.576 200.625 286.437 199.366C288.312 198.106 291.139 197.41 294.918 197.278L299.137 197.125V195.85C299.137 194.166 298.741 192.964 297.95 192.247C297.174 191.529 296.075 191.17 294.654 191.17C293.439 191.17 292.259 191.346 291.117 191.697C289.974 192.049 288.861 192.481 287.777 192.994L286.107 189.346C287.294 188.716 288.641 188.204 290.15 187.808C291.674 187.413 293.256 187.215 294.896 187.215ZM299.115 200.376L295.973 200.486C293.395 200.574 291.586 201.014 290.546 201.805C289.506 202.596 288.986 203.68 288.986 205.057C288.986 206.258 289.344 207.137 290.062 207.693C290.78 208.235 291.725 208.506 292.897 208.506C294.684 208.506 296.163 208.001 297.335 206.99C298.522 205.965 299.115 204.463 299.115 202.486V200.376ZM327.946 205.057C327.946 206.653 327.558 208.001 326.782 209.1C326.005 210.198 324.87 211.033 323.376 211.604C321.896 212.161 320.08 212.439 317.927 212.439C316.227 212.439 314.763 212.315 313.532 212.066C312.316 211.832 311.166 211.465 310.082 210.967V206.507C311.24 207.049 312.536 207.518 313.972 207.913C315.422 208.309 316.791 208.506 318.08 208.506C319.78 208.506 321.003 208.243 321.75 207.715C322.497 207.173 322.871 206.456 322.871 205.562C322.871 205.035 322.717 204.566 322.409 204.156C322.116 203.731 321.559 203.299 320.739 202.859C319.934 202.405 318.747 201.863 317.18 201.233C315.642 200.618 314.345 200.003 313.29 199.388C312.236 198.772 311.437 198.033 310.895 197.168C310.353 196.29 310.082 195.169 310.082 193.807C310.082 191.653 310.932 190.02 312.631 188.907C314.345 187.779 316.608 187.215 319.421 187.215C320.915 187.215 322.321 187.369 323.64 187.676C324.973 187.969 326.276 188.401 327.551 188.973L325.925 192.862C324.826 192.378 323.72 191.983 322.607 191.675C321.508 191.353 320.388 191.192 319.245 191.192C317.912 191.192 316.894 191.397 316.191 191.807C315.502 192.217 315.158 192.803 315.158 193.565C315.158 194.136 315.327 194.62 315.663 195.015C316 195.411 316.579 195.806 317.399 196.202C318.234 196.597 319.392 197.088 320.871 197.674C322.321 198.23 323.574 198.816 324.628 199.432C325.698 200.032 326.518 200.772 327.089 201.651C327.661 202.53 327.946 203.665 327.946 205.057ZM370.514 212H364.449L354.452 197.41L351.288 199.981V212H346.014V179.876H351.288V195.235C351.932 194.444 352.584 193.653 353.243 192.862C353.902 192.071 354.561 191.28 355.221 190.489L364.273 179.876H370.228L358.231 193.938L370.514 212ZM383.898 187.215C386.974 187.215 389.296 187.896 390.863 189.258C392.445 190.621 393.236 192.745 393.236 195.63V212H389.567L388.578 208.55H388.402C387.714 209.429 387.004 210.154 386.271 210.726C385.539 211.297 384.689 211.722 383.722 212C382.77 212.293 381.606 212.439 380.229 212.439C378.778 212.439 377.482 212.176 376.339 211.648C375.197 211.106 374.296 210.286 373.637 209.188C372.978 208.089 372.648 206.697 372.648 205.013C372.648 202.508 373.578 200.625 375.439 199.366C377.314 198.106 380.141 197.41 383.92 197.278L388.139 197.125V195.85C388.139 194.166 387.743 192.964 386.952 192.247C386.176 191.529 385.077 191.17 383.656 191.17C382.441 191.17 381.261 191.346 380.119 191.697C378.976 192.049 377.863 192.481 376.779 192.994L375.109 189.346C376.296 188.716 377.643 188.204 379.152 187.808C380.675 187.413 382.257 187.215 383.898 187.215ZM388.117 200.376L384.975 200.486C382.397 200.574 380.588 201.014 379.547 201.805C378.507 202.596 377.987 203.68 377.987 205.057C377.987 206.258 378.346 207.137 379.064 207.693C379.782 208.235 380.727 208.506 381.899 208.506C383.686 208.506 385.165 208.001 386.337 206.99C387.524 205.965 388.117 204.463 388.117 202.486V200.376ZM428.088 187.215C430.813 187.215 432.864 187.918 434.241 189.324C435.632 190.73 436.328 192.986 436.328 196.092V212H431.164V197.015C431.164 195.169 430.806 193.777 430.088 192.84C429.37 191.902 428.279 191.434 426.814 191.434C424.763 191.434 423.284 192.093 422.375 193.411C421.482 194.715 421.035 196.612 421.035 199.102V212H415.871V197.015C415.871 195.784 415.71 194.759 415.388 193.938C415.08 193.104 414.604 192.481 413.96 192.071C413.315 191.646 412.502 191.434 411.521 191.434C410.1 191.434 408.965 191.756 408.115 192.4C407.28 193.045 406.68 193.997 406.313 195.257C405.947 196.502 405.764 198.033 405.764 199.849V212H400.6V187.676H404.621L405.347 190.95H405.632C406.13 190.101 406.745 189.405 407.478 188.863C408.225 188.306 409.053 187.896 409.961 187.632C410.869 187.354 411.814 187.215 412.795 187.215C414.612 187.215 416.142 187.537 417.388 188.182C418.633 188.812 419.563 189.778 420.178 191.082H420.574C421.335 189.764 422.397 188.79 423.76 188.16C425.122 187.53 426.565 187.215 428.088 187.215ZM448.834 187.676V212H443.67V187.676H448.834ZM446.285 178.36C447.076 178.36 447.757 178.572 448.328 178.997C448.914 179.422 449.207 180.154 449.207 181.194C449.207 182.22 448.914 182.952 448.328 183.392C447.757 183.816 447.076 184.029 446.285 184.029C445.464 184.029 444.769 183.816 444.197 183.392C443.641 182.952 443.362 182.22 443.362 181.194C443.362 180.154 443.641 179.422 444.197 178.997C444.769 178.572 445.464 178.36 446.285 178.36Z" fill="white"/>
<rect x="853" y="138" width="215" height="66" rx="33" fill="white"/>
<path d="M888.377 184.372C887.983 184.372 887.639 184.347 887.346 184.297C887.045 184.254 886.787 184.193 886.572 184.114V181.955C886.801 182.012 887.049 182.062 887.313 182.105C887.578 182.148 887.861 182.17 888.162 182.17C888.556 182.17 888.914 182.095 889.236 181.944C889.559 181.794 889.813 181.522 889.999 181.128C890.192 180.734 890.289 180.179 890.289 179.463V164.295H892.867V179.377C892.867 180.544 892.681 181.493 892.309 182.224C891.936 182.961 891.413 183.502 890.74 183.846C890.067 184.197 889.279 184.372 888.377 184.372ZM907.197 174.027C907.197 175.016 907.068 175.893 906.811 176.659C906.553 177.425 906.177 178.074 905.683 178.604C905.188 179.126 904.594 179.527 903.899 179.807C903.205 180.079 902.421 180.215 901.547 180.215C900.73 180.215 899.982 180.079 899.302 179.807C898.621 179.527 898.031 179.126 897.529 178.604C897.035 178.074 896.652 177.425 896.38 176.659C896.108 175.893 895.972 175.016 895.972 174.027C895.972 172.717 896.197 171.607 896.648 170.697C897.107 169.781 897.758 169.082 898.604 168.603C899.449 168.123 900.455 167.883 901.622 167.883C902.718 167.883 903.685 168.123 904.522 168.603C905.36 169.082 906.016 169.781 906.488 170.697C906.961 171.614 907.197 172.724 907.197 174.027ZM898.571 174.027C898.571 174.894 898.675 175.635 898.883 176.251C899.098 176.867 899.427 177.34 899.871 177.669C900.315 177.991 900.888 178.152 901.59 178.152C902.292 178.152 902.865 177.991 903.309 177.669C903.753 177.34 904.078 176.867 904.286 176.251C904.494 175.635 904.598 174.894 904.598 174.027C904.598 173.161 904.494 172.427 904.286 171.825C904.078 171.216 903.753 170.755 903.309 170.439C902.865 170.117 902.288 169.956 901.579 169.956C900.534 169.956 899.771 170.307 899.291 171.009C898.811 171.711 898.571 172.717 898.571 174.027ZM912.622 168.108V180H910.098V168.108H912.622ZM911.376 163.554C911.763 163.554 912.096 163.658 912.375 163.865C912.661 164.073 912.805 164.431 912.805 164.939C912.805 165.441 912.661 165.799 912.375 166.014C912.096 166.221 911.763 166.325 911.376 166.325C910.975 166.325 910.635 166.221 910.355 166.014C910.083 165.799 909.947 165.441 909.947 164.939C909.947 164.431 910.083 164.073 910.355 163.865C910.635 163.658 910.975 163.554 911.376 163.554ZM922.44 167.883C923.78 167.883 924.822 168.23 925.566 168.925C926.318 169.612 926.694 170.719 926.694 172.244V180H924.17V172.717C924.17 171.793 923.98 171.102 923.601 170.644C923.221 170.178 922.634 169.945 921.839 169.945C920.686 169.945 919.884 170.3 919.433 171.009C918.989 171.718 918.767 172.745 918.767 174.092V180H916.242V168.108H918.208L918.562 169.72H918.702C918.96 169.304 919.279 168.964 919.658 168.699C920.045 168.427 920.475 168.223 920.947 168.087C921.427 167.951 921.925 167.883 922.44 167.883ZM945.268 175.725C945.268 176.656 945.038 177.458 944.58 178.131C944.129 178.804 943.477 179.32 942.625 179.678C941.78 180.036 940.77 180.215 939.596 180.215C939.023 180.215 938.475 180.183 937.952 180.118C937.429 180.054 936.935 179.961 936.47 179.839C936.011 179.71 935.592 179.556 935.213 179.377V176.949C935.85 177.229 936.563 177.483 937.351 177.712C938.138 177.934 938.94 178.045 939.757 178.045C940.423 178.045 940.974 177.959 941.411 177.787C941.855 177.608 942.185 177.357 942.399 177.035C942.614 176.706 942.722 176.323 942.722 175.886C942.722 175.42 942.596 175.026 942.346 174.704C942.095 174.382 941.715 174.088 941.207 173.823C940.706 173.551 940.076 173.261 939.316 172.953C938.801 172.745 938.307 172.509 937.834 172.244C937.368 171.979 936.953 171.668 936.588 171.31C936.223 170.951 935.933 170.529 935.718 170.042C935.51 169.548 935.406 168.968 935.406 168.302C935.406 167.414 935.618 166.655 936.04 166.024C936.47 165.394 937.071 164.911 937.845 164.574C938.625 164.238 939.535 164.069 940.573 164.069C941.397 164.069 942.17 164.155 942.894 164.327C943.624 164.499 944.34 164.743 945.042 165.058L944.226 167.131C943.581 166.866 942.954 166.655 942.346 166.497C941.744 166.34 941.128 166.261 940.498 166.261C939.954 166.261 939.492 166.343 939.112 166.508C938.733 166.673 938.443 166.905 938.242 167.206C938.049 167.5 937.952 167.851 937.952 168.259C937.952 168.717 938.063 169.104 938.285 169.419C938.514 169.727 938.865 170.01 939.338 170.268C939.818 170.525 940.434 170.812 941.186 171.127C942.052 171.485 942.786 171.861 943.388 172.255C943.996 172.649 944.462 173.121 944.784 173.673C945.106 174.217 945.268 174.901 945.268 175.725ZM952.776 167.883C953.836 167.883 954.746 168.101 955.505 168.538C956.264 168.975 956.848 169.594 957.256 170.396C957.664 171.199 957.868 172.158 957.868 173.275V174.629H949.93C949.958 175.782 950.266 176.67 950.854 177.293C951.448 177.916 952.279 178.228 953.346 178.228C954.105 178.228 954.785 178.156 955.387 178.013C955.995 177.862 956.622 177.644 957.267 177.357V179.409C956.672 179.688 956.067 179.893 955.451 180.021C954.835 180.15 954.098 180.215 953.238 180.215C952.071 180.215 951.043 179.989 950.155 179.538C949.274 179.08 948.583 178.399 948.082 177.497C947.588 176.595 947.341 175.474 947.341 174.135C947.341 172.803 947.566 171.671 948.018 170.74C948.469 169.809 949.103 169.1 949.919 168.613C950.735 168.126 951.688 167.883 952.776 167.883ZM952.776 169.784C951.981 169.784 951.337 170.042 950.843 170.558C950.356 171.073 950.069 171.829 949.983 172.824H955.397C955.39 172.23 955.29 171.703 955.097 171.245C954.91 170.787 954.624 170.429 954.237 170.171C953.858 169.913 953.371 169.784 952.776 169.784ZM963.239 163.285V171.363C963.239 171.729 963.225 172.13 963.196 172.566C963.168 172.996 963.139 173.401 963.11 173.78H963.164C963.35 173.53 963.572 173.236 963.83 172.899C964.095 172.563 964.346 172.269 964.582 172.019L968.213 168.108H971.113L966.354 173.222L971.425 180H968.46L964.657 174.779L963.239 175.993V180H960.715V163.285H963.239ZM977.988 167.883C979.492 167.883 980.627 168.216 981.394 168.882C982.167 169.548 982.554 170.586 982.554 171.997V180H980.76L980.276 178.313H980.19C979.854 178.743 979.507 179.098 979.148 179.377C978.79 179.656 978.375 179.864 977.902 180C977.437 180.143 976.868 180.215 976.194 180.215C975.485 180.215 974.852 180.086 974.293 179.828C973.734 179.563 973.294 179.162 972.972 178.625C972.649 178.088 972.488 177.408 972.488 176.584C972.488 175.359 972.943 174.439 973.853 173.823C974.769 173.207 976.151 172.867 977.999 172.803L980.062 172.728V172.104C980.062 171.281 979.868 170.694 979.481 170.343C979.102 169.992 978.565 169.816 977.87 169.816C977.276 169.816 976.699 169.902 976.141 170.074C975.582 170.246 975.038 170.457 974.508 170.708L973.691 168.925C974.271 168.617 974.93 168.366 975.668 168.173C976.413 167.979 977.186 167.883 977.988 167.883ZM980.051 174.317L978.515 174.371C977.254 174.414 976.37 174.629 975.861 175.016C975.353 175.402 975.099 175.932 975.099 176.605C975.099 177.193 975.274 177.622 975.625 177.895C975.976 178.16 976.438 178.292 977.011 178.292C977.884 178.292 978.608 178.045 979.181 177.551C979.761 177.049 980.051 176.315 980.051 175.349V174.317ZM992.114 167.883C992.315 167.883 992.533 167.894 992.77 167.915C993.006 167.937 993.21 167.965 993.382 168.001L993.146 170.364C992.995 170.321 992.809 170.289 992.587 170.268C992.372 170.246 992.179 170.235 992.007 170.235C991.556 170.235 991.126 170.311 990.718 170.461C990.31 170.604 989.948 170.826 989.633 171.127C989.318 171.421 989.071 171.789 988.892 172.233C988.713 172.677 988.623 173.193 988.623 173.78V180H986.088V168.108H988.064L988.408 170.203H988.526C988.763 169.781 989.056 169.394 989.407 169.043C989.758 168.692 990.159 168.413 990.61 168.205C991.069 167.99 991.57 167.883 992.114 167.883ZM1000.25 167.883C1001.75 167.883 1002.89 168.216 1003.65 168.882C1004.42 169.548 1004.81 170.586 1004.81 171.997V180H1003.02L1002.53 178.313H1002.45C1002.11 178.743 1001.76 179.098 1001.41 179.377C1001.05 179.656 1000.63 179.864 1000.16 180C999.695 180.143 999.125 180.215 998.452 180.215C997.743 180.215 997.109 180.086 996.551 179.828C995.992 179.563 995.552 179.162 995.229 178.625C994.907 178.088 994.746 177.408 994.746 176.584C994.746 175.359 995.201 174.439 996.11 173.823C997.027 173.207 998.409 172.867 1000.26 172.803L1002.32 172.728V172.104C1002.32 171.281 1002.13 170.694 1001.74 170.343C1001.36 169.992 1000.82 169.816 1000.13 169.816C999.534 169.816 998.957 169.902 998.398 170.074C997.84 170.246 997.296 170.457 996.766 170.708L995.949 168.925C996.529 168.617 997.188 168.366 997.926 168.173C998.671 167.979 999.444 167.883 1000.25 167.883ZM1002.31 174.317L1000.77 174.371C999.512 174.414 998.628 174.629 998.119 175.016C997.611 175.402 997.356 175.932 997.356 176.605C997.356 177.193 997.532 177.622 997.883 177.895C998.234 178.16 998.696 178.292 999.269 178.292C1000.14 178.292 1000.87 178.045 1001.44 177.551C1002.02 177.049 1002.31 176.315 1002.31 175.349V174.317ZM1014.54 167.883C1015.88 167.883 1016.93 168.23 1017.67 168.925C1018.42 169.612 1018.8 170.719 1018.8 172.244V180H1016.27V172.717C1016.27 171.793 1016.08 171.102 1015.7 170.644C1015.32 170.178 1014.74 169.945 1013.94 169.945C1012.79 169.945 1011.99 170.3 1011.54 171.009C1011.09 171.718 1010.87 172.745 1010.87 174.092V180H1008.35V168.108H1010.31L1010.67 169.72H1010.81C1011.06 169.304 1011.38 168.964 1011.76 168.699C1012.15 168.427 1012.58 168.223 1013.05 168.087C1013.53 167.951 1014.03 167.883 1014.54 167.883ZM1025.73 185.285C1024.12 185.285 1022.88 184.995 1022.02 184.415C1021.16 183.835 1020.73 183.022 1020.73 181.977C1020.73 181.246 1020.96 180.627 1021.42 180.118C1021.88 179.617 1022.53 179.27 1023.38 179.076C1023.06 178.933 1022.78 178.711 1022.55 178.41C1022.32 178.102 1022.2 177.762 1022.2 177.39C1022.2 176.946 1022.33 176.566 1022.58 176.251C1022.83 175.936 1023.21 175.632 1023.71 175.338C1023.08 175.073 1022.58 174.643 1022.2 174.049C1021.83 173.447 1021.64 172.742 1021.64 171.933C1021.64 171.073 1021.83 170.343 1022.19 169.741C1022.56 169.132 1023.09 168.671 1023.79 168.355C1024.49 168.033 1025.34 167.872 1026.34 167.872C1026.55 167.872 1026.79 167.886 1027.04 167.915C1027.29 167.937 1027.53 167.965 1027.75 168.001C1027.97 168.03 1028.14 168.062 1028.25 168.098H1032.37V169.505L1030.35 169.881C1030.54 170.153 1030.69 170.465 1030.81 170.815C1030.92 171.159 1030.98 171.535 1030.98 171.943C1030.98 173.175 1030.55 174.146 1029.7 174.854C1028.86 175.556 1027.69 175.907 1026.2 175.907C1025.84 175.893 1025.49 175.864 1025.16 175.821C1024.9 175.979 1024.7 176.154 1024.57 176.348C1024.43 176.534 1024.36 176.745 1024.36 176.981C1024.36 177.175 1024.43 177.332 1024.57 177.454C1024.7 177.569 1024.9 177.655 1025.17 177.712C1025.44 177.769 1025.77 177.798 1026.16 177.798H1028.21C1029.51 177.798 1030.51 178.074 1031.19 178.625C1031.88 179.176 1032.23 179.986 1032.23 181.053C1032.23 182.406 1031.67 183.448 1030.55 184.179C1029.43 184.916 1027.82 185.285 1025.73 185.285ZM1025.82 183.513C1026.7 183.513 1027.45 183.427 1028.05 183.255C1028.65 183.083 1029.1 182.836 1029.41 182.514C1029.72 182.199 1029.87 181.823 1029.87 181.386C1029.87 180.999 1029.78 180.702 1029.58 180.494C1029.39 180.286 1029.1 180.143 1028.71 180.064C1028.33 179.986 1027.85 179.946 1027.27 179.946H1025.4C1024.94 179.946 1024.53 180.018 1024.17 180.161C1023.81 180.312 1023.53 180.526 1023.33 180.806C1023.14 181.085 1023.04 181.422 1023.04 181.815C1023.04 182.36 1023.28 182.779 1023.76 183.072C1024.25 183.366 1024.94 183.513 1025.82 183.513ZM1026.32 174.253C1027.06 174.253 1027.6 174.052 1027.96 173.651C1028.32 173.243 1028.5 172.67 1028.5 171.933C1028.5 171.131 1028.31 170.529 1027.94 170.128C1027.57 169.727 1027.03 169.526 1026.31 169.526C1025.6 169.526 1025.06 169.73 1024.68 170.139C1024.32 170.547 1024.14 171.152 1024.14 171.954C1024.14 172.677 1024.32 173.243 1024.68 173.651C1025.06 174.052 1025.6 174.253 1026.32 174.253Z" fill="#055CAB"/>
<defs>
<linearGradient id="paint0_linear_338_7048" x1="0" y1="167" x2="1162" y2="167" gradientUnits="userSpaceOnUse">
<stop stop-color="#4481EB"/>
<stop offset="1" stop-color="#04BEFE"/>
</linearGradient>
<linearGradient id="paint1_linear_338_7048" x1="309.398" y1="224.01" x2="-9.85944" y2="366.237" gradientUnits="userSpaceOnUse">
<stop stop-color="#7ED4EF"/>
<stop offset="0.2294" stop-color="#66BFE6"/>
<stop offset="0.711" stop-color="#298BD0"/>
<stop offset="1" stop-color="#0169C2"/>
</linearGradient>
<linearGradient id="paint2_linear_338_7048" x1="320.121" y1="219.173" x2="748.108" y2="-47.7027" gradientUnits="userSpaceOnUse">
<stop stop-color="#7ED4EF"/>
<stop offset="0.2294" stop-color="#66BFE6"/>
<stop offset="0.711" stop-color="#298BD0"/>
<stop offset="1" stop-color="#0169C2"/>
</linearGradient>
</defs>
</svg>
