<svg width="45" height="45" viewBox="0 0 45 45" fill="none" xmlns="http://www.w3.org/2000/svg">
<circle cx="22.5" cy="22.5" r="22.5" fill="white"/>
<path d="M17 13V16H14V13H17ZM12.5 11.5V17.5H18.5V11.5H12.5ZM24.5 15.25V18.25H21.5V15.25H24.5ZM20 13.75V19.75H26V13.75H20ZM17 22V25H14V22H17ZM12.5 20.5V26.5H18.5V20.5H12.5Z" fill="#999999"/>
<path d="M27.5 17.5V22H23V26.5H18.5V32.5H33.5V17.5H27.5ZM24.5 23.5H27.5V26.5H24.5V23.5ZM23 31H20V28H23V31ZM27.5 31H24.5V28H27.5V31ZM32 31H29V28H32V31ZM32 26.5H29V23.5H32V26.5ZM29 22V19H32V22H29Z" fill="#999999"/>
</svg>
