<svg width="45" height="45" viewBox="0 0 45 45" fill="none" xmlns="http://www.w3.org/2000/svg">
<circle cx="22.5" cy="22.5" r="22.5" fill="white"/>
<g clip-path="url(#clip0_1727_5840)">
<path d="M19.355 20.5708C20.5016 21.0749 21.7487 21.3085 23 21.2535C24.253 21.3091 25.5021 21.0781 26.6525 20.5783C26.9075 20.455 27.1224 20.2621 27.2724 20.0218C27.4224 19.7815 27.5013 19.5036 27.5 19.2204C27.275 16.6621 26.6075 16.0018 25.4375 15.1166L25.25 14.9665C25.6319 14.5334 25.8807 13.9992 25.9666 13.4281C26.0525 12.857 25.9719 12.2733 25.7343 11.7469C25.4968 11.2205 25.1124 10.7739 24.6274 10.4606C24.1424 10.1473 23.5773 9.98065 23 9.98065C22.4227 9.98065 21.8576 10.1473 21.3726 10.4606C20.8876 10.7739 20.5032 11.2205 20.2657 11.7469C20.0281 12.2733 19.9475 12.857 20.0334 13.4281C20.1193 13.9992 20.3681 14.5334 20.75 14.9665L20.5625 15.1166C19.3925 16.0018 18.7175 16.6621 18.5 19.2879C18.5131 19.5591 18.5996 19.8217 18.7502 20.0476C18.9007 20.2735 19.1098 20.4543 19.355 20.5708ZM26 19.2128C25.5367 19.4642 25.0255 19.615 24.5 19.6555L23.4575 16.8796L24.0875 15.9343L24.5 16.3019C25.4075 16.9922 25.82 17.3148 26 19.2128ZM23 11.5004C23.2967 11.5004 23.5867 11.5884 23.8334 11.7533C24.08 11.9182 24.2723 12.1525 24.3858 12.4267C24.4994 12.7009 24.5291 13.0026 24.4712 13.2936C24.4133 13.5847 24.2704 13.8521 24.0607 14.0619C23.8509 14.2717 23.5836 14.4146 23.2926 14.4725C23.0017 14.5304 22.7001 14.5007 22.426 14.3872C22.1519 14.2736 21.9176 14.0813 21.7528 13.8345C21.588 13.5878 21.5 13.2977 21.5 13.0009C21.5 12.603 21.658 12.2213 21.9393 11.9399C22.2206 11.6585 22.6022 11.5004 23 11.5004ZM21.5 16.3019L21.9725 15.9343L22.6025 16.8796L21.56 19.6555C21.0345 19.615 20.5233 19.4642 20.06 19.2128C20.1875 17.3073 20.6 16.9847 21.5 16.3019Z" fill="#999999"/>
<path d="M17.9375 27.8705L17.75 27.7205C18.1319 27.2873 18.3807 26.7532 18.4666 26.1821C18.5525 25.611 18.4719 25.0272 18.2343 24.5009C17.9968 23.9745 17.6124 23.5278 17.1274 23.2146C16.6424 22.9013 16.0773 22.7346 15.5 22.7346C14.9227 22.7346 14.3576 22.9013 13.8726 23.2146C13.3876 23.5278 13.0032 23.9745 12.7657 24.5009C12.5281 25.0272 12.4475 25.611 12.5334 26.1821C12.6193 26.7532 12.8681 27.2873 13.25 27.7205L13.0625 27.8705C11.8925 28.7558 11.225 29.416 11 32.0418C11.0131 32.3131 11.0996 32.5756 11.2502 32.8015C11.4007 33.0275 11.6098 33.2083 11.855 33.3247C13.0016 33.8289 14.2487 34.0625 15.5 34.0075C16.753 34.063 18.0021 33.8321 19.1525 33.3322C19.4075 33.209 19.6224 33.0161 19.7724 32.7758C19.9224 32.5355 20.0013 32.2576 20 31.9743C19.775 29.416 19.1075 28.7558 17.9375 27.8705ZM15.5 24.2544C15.7967 24.2544 16.0867 24.3424 16.3334 24.5073C16.58 24.6722 16.7723 24.9065 16.8858 25.1807C16.9994 25.4548 17.0291 25.7565 16.9712 26.0476C16.9133 26.3387 16.7704 26.606 16.5607 26.8159C16.3509 27.0257 16.0836 27.1686 15.7926 27.2265C15.5017 27.2844 15.2001 27.2547 14.926 27.1411C14.6519 27.0276 14.4176 26.8352 14.2528 26.5885C14.088 26.3417 14 26.0516 14 25.7549C14 25.3569 14.158 24.9753 14.4393 24.6939C14.7206 24.4125 15.1022 24.2544 15.5 24.2544ZM14 29.0559L14.465 28.6883L15.095 29.6336L14.0525 32.4095C13.527 32.369 13.0158 32.2182 12.5525 31.9668C12.6875 30.0612 13.1 29.7386 14 29.0559ZM17 32.4095L15.9575 29.6336L16.5875 28.6883L17 29.0559C17.8925 29.7461 18.305 30.0612 18.5 31.9668C18.0367 32.2182 17.5255 32.369 17 32.4095Z" fill="#999999"/>
<path d="M32.9375 27.8705L32.75 27.7205C33.1319 27.2873 33.3807 26.7532 33.4666 26.1821C33.5525 25.611 33.4719 25.0272 33.2343 24.5009C32.9968 23.9745 32.6124 23.5278 32.1274 23.2146C31.6424 22.9013 31.0773 22.7346 30.5 22.7346C29.9227 22.7346 29.3576 22.9013 28.8726 23.2146C28.3876 23.5278 28.0032 23.9745 27.7657 24.5009C27.5281 25.0272 27.4475 25.611 27.5334 26.1821C27.6193 26.7532 27.8681 27.2873 28.25 27.7205L28.0625 27.8705C26.8925 28.7558 26.225 29.416 26 32.0418C26.0131 32.3131 26.0996 32.5756 26.2502 32.8015C26.4007 33.0275 26.6098 33.2083 26.855 33.3247C28.0016 33.8289 29.2487 34.0625 30.5 34.0075C31.753 34.063 33.0021 33.8321 34.1525 33.3322C34.4075 33.209 34.6224 33.0161 34.7724 32.7758C34.9224 32.5355 35.0013 32.2576 35 31.9743C34.775 29.416 34.1075 28.7558 32.9375 27.8705ZM30.5 24.2544C30.7967 24.2544 31.0867 24.3424 31.3334 24.5073C31.58 24.6722 31.7723 24.9065 31.8858 25.1807C31.9994 25.4548 32.0291 25.7565 31.9712 26.0476C31.9133 26.3387 31.7704 26.606 31.5607 26.8159C31.3509 27.0257 31.0836 27.1686 30.7926 27.2265C30.5017 27.2844 30.2001 27.2547 29.926 27.1411C29.6519 27.0276 29.4176 26.8352 29.2528 26.5885C29.088 26.3417 29 26.0516 29 25.7549C29 25.3569 29.158 24.9753 29.4393 24.6939C29.7206 24.4125 30.1022 24.2544 30.5 24.2544ZM29 29.0559L29.465 28.6883L30.095 29.6336L29.0525 32.4095C28.527 32.369 28.0158 32.2182 27.5525 31.9668C27.6875 30.0612 28.1 29.7386 29 29.0559ZM32 32.4095L30.9575 29.6336L31.5875 28.6883L32.0525 29.0559C32.945 29.7461 33.3575 30.0612 33.5525 31.9668C33.0733 32.2254 32.5435 32.3764 32 32.4095Z" fill="#999999"/>
<path d="M26.75 25.7549C26.75 25.5559 26.671 25.3651 26.5303 25.2244C26.3897 25.0837 26.1989 25.0047 26 25.0047H23.75V22.754C23.75 22.555 23.671 22.3642 23.5303 22.2235C23.3897 22.0828 23.1989 22.0037 23 22.0037C22.8011 22.0037 22.6103 22.0828 22.4697 22.2235C22.329 22.3642 22.25 22.555 22.25 22.754V25.0047H20C19.8011 25.0047 19.6103 25.0837 19.4697 25.2244C19.329 25.3651 19.25 25.5559 19.25 25.7549C19.25 25.9539 19.329 26.1447 19.4697 26.2854C19.6103 26.4261 19.8011 26.5051 20 26.5051H26C26.1989 26.5051 26.3897 26.4261 26.5303 26.2854C26.671 26.1447 26.75 25.9539 26.75 25.7549Z" fill="#999999"/>
</g>
<defs>
<clipPath id="clip0_1727_5840">
<rect width="24" height="24" fill="white" transform="translate(11 10)"/>
</clipPath>
</defs>
</svg>
