<svg width="45" height="45" viewBox="0 0 45 45" fill="none" xmlns="http://www.w3.org/2000/svg">
<circle cx="22.5" cy="22.5" r="22.5" fill="white"/>
<path d="M26.75 12.2733L26.258 12.8126C25.1562 14.0253 24.248 14.5676 23.492 14.9223C23.227 15.0464 22.9768 15.14 22.7367 15.2298C22.292 15.3962 21.882 15.5495 21.4767 15.8598C20.8115 16.3698 19.8447 17.3478 19.4375 19.0938C18.5645 19.2843 17.9255 19.6188 17.4215 20.0546C17.0355 20.3882 16.7234 20.7575 16.3875 21.155C16.29 21.2704 16.1904 21.3881 16.0865 21.5081C16.0845 21.5113 16.0853 21.5162 16.0861 21.5209C16.0868 21.5248 16.0875 21.5286 16.0865 21.5313C15.999 21.6319 15.9129 21.7335 15.8268 21.8352C15.2609 22.5032 14.6952 23.1711 13.7187 23.5473L13.25 23.7348V31.7501H27.5472C28.367 31.7058 28.9355 31.1381 29.2812 30.5778C29.6262 30.0183 29.8175 29.4123 29.9142 28.9143C30.1632 27.6453 30.617 23.9921 30.617 23.9921L30.641 23.9223V23.8518C30.617 23.3448 30.4085 22.9143 30.1482 22.5153L30.992 20.0081L32.3285 17.9921L32.7035 17.4528L32.2107 17.0081L27.2892 12.7421L26.75 12.2733ZM26.7972 14.3358L30.7107 17.7348L29.6795 19.2573L29.6097 19.3286L29.5857 19.4456L28.9062 21.4608C28.5515 21.3146 28.1862 21.2118 27.7812 21.2268H27.734L23 21.2501H22.25V24.1563C22.145 24.9738 21.6905 25.2903 21.125 25.5161C21.0106 25.5623 20.9573 25.5649 20.8958 25.568C20.8566 25.57 20.814 25.5721 20.75 25.5858V21.2276C20.627 18.4473 21.617 17.6471 22.391 17.0553C22.5068 16.9663 22.7438 16.8698 23.0788 16.7334C23.362 16.618 23.7154 16.4741 24.125 16.2821C24.872 15.9303 25.8005 15.3003 26.7972 14.3366V14.3358ZM19.2972 20.7813C19.2959 20.8577 19.2844 20.924 19.273 20.99C19.259 21.0711 19.245 21.1517 19.25 21.2501V27.2501H20C20 27.2501 20.8025 27.2411 21.6642 26.8983C22.5252 26.5556 23.5655 25.7531 23.75 24.3438V22.7501L27.7812 22.7268H27.8045C28.1337 22.7088 28.4567 22.8219 28.7027 23.0415C28.9487 23.2611 29.0977 23.5692 29.117 23.8983C29.1154 23.9047 29.1047 23.9876 29.0938 24.0726C29.0844 24.1462 29.0747 24.2215 29.0705 24.2501H26V25.7501H28.883C28.8379 26.0788 28.795 26.338 28.7513 26.6023C28.7179 26.8042 28.684 27.0091 28.6482 27.2501H26V28.7501H28.4142C28.3256 29.1129 28.1833 29.4605 27.992 29.7813C27.7872 30.1151 27.611 30.2411 27.4535 30.2501H14.75V24.6483C15.8816 24.048 16.6148 23.2027 17.1053 22.6374C17.1417 22.5953 17.1769 22.5548 17.2107 22.5161C17.3341 22.3749 17.448 22.242 17.5547 22.1176C17.8866 21.7304 18.1486 21.4249 18.4062 21.2036C18.5926 21.0442 18.8671 20.942 19.1389 20.8409C19.192 20.8211 19.245 20.8014 19.2972 20.7813Z" fill="#999999"/>
<path d="M26.75 12.2733L26.258 12.8126C25.1562 14.0253 24.248 14.5676 23.492 14.9223C23.227 15.0464 22.9768 15.14 22.7367 15.2298C22.292 15.3962 21.882 15.5495 21.4767 15.8598C20.8115 16.3698 19.8447 17.3478 19.4375 19.0938C18.5645 19.2843 17.9255 19.6188 17.4215 20.0546C17.0355 20.3882 16.7234 20.7575 16.3875 21.155C16.29 21.2704 16.1904 21.3881 16.0865 21.5081C16.0845 21.5113 16.0853 21.5162 16.0861 21.5209C16.0868 21.5248 16.0875 21.5286 16.0865 21.5313C15.999 21.6319 15.9129 21.7335 15.8268 21.8352C15.2609 22.5032 14.6952 23.1711 13.7187 23.5473L13.25 23.7348V31.7501H27.5472C28.367 31.7058 28.9355 31.1381 29.2812 30.5778C29.6262 30.0183 29.8175 29.4123 29.9142 28.9143C30.1632 27.6453 30.617 23.9921 30.617 23.9921L30.641 23.9223V23.8518C30.617 23.3448 30.4085 22.9143 30.1482 22.5153L30.992 20.0081L32.3285 17.9921L32.7035 17.4528L32.2107 17.0081L27.2892 12.7421L26.75 12.2733ZM26.7972 14.3358L30.7107 17.7348L29.6795 19.2573L29.6097 19.3286L29.5857 19.4456L28.9062 21.4608C28.5515 21.3146 28.1862 21.2118 27.7812 21.2268H27.734L23 21.2501H22.25V24.1563C22.145 24.9738 21.6905 25.2903 21.125 25.5161C21.0106 25.5623 20.9573 25.5649 20.8958 25.568C20.8566 25.57 20.814 25.5721 20.75 25.5858V21.2276C20.627 18.4473 21.617 17.6471 22.391 17.0553C22.5068 16.9663 22.7438 16.8698 23.0788 16.7334C23.362 16.618 23.7154 16.4741 24.125 16.2821C24.872 15.9303 25.8005 15.3003 26.7972 14.3366V14.3358ZM19.2972 20.7813C19.2959 20.8577 19.2844 20.924 19.273 20.99C19.259 21.0711 19.245 21.1517 19.25 21.2501V27.2501H20C20 27.2501 20.8025 27.2411 21.6642 26.8983C22.5252 26.5556 23.5655 25.7531 23.75 24.3438V22.7501L27.7812 22.7268H27.8045C28.1337 22.7088 28.4567 22.8219 28.7027 23.0415C28.9487 23.2611 29.0977 23.5692 29.117 23.8983C29.1154 23.9047 29.1047 23.9876 29.0938 24.0726C29.0844 24.1462 29.0747 24.2215 29.0705 24.2501H26V25.7501H28.883C28.8379 26.0788 28.795 26.338 28.7513 26.6023C28.7179 26.8042 28.684 27.0091 28.6482 27.2501H26V28.7501H28.4142C28.3256 29.1129 28.1833 29.4605 27.992 29.7813C27.7872 30.1151 27.611 30.2411 27.4535 30.2501H14.75V24.6483C15.8816 24.048 16.6148 23.2027 17.1053 22.6374C17.1417 22.5953 17.1769 22.5548 17.2107 22.5161C17.3341 22.3749 17.448 22.242 17.5547 22.1176C17.8866 21.7304 18.1486 21.4249 18.4062 21.2036C18.5926 21.0442 18.8671 20.942 19.1389 20.8409C19.192 20.8211 19.245 20.8014 19.2972 20.7813Z" stroke="#999999"/>
</svg>
