<svg width="45" height="45" viewBox="0 0 45 45" fill="none" xmlns="http://www.w3.org/2000/svg">
<circle cx="22.5" cy="22.5" r="22.5" fill="white"/>
<path d="M32.945 20.5L30.5 14.5H32V13H24.5V11.5H23V13H15.5V14.5H17L14.57 20.5H14V22H14.225C14.459 22.747 14.9345 23.395 15.575 23.845C16.2075 24.3036 16.9687 24.5506 17.75 24.5506C18.5313 24.5506 19.2925 24.3036 19.925 23.845C20.566 23.3923 21.0446 22.7454 21.29 22H21.5V20.5H20.825L18.32 14.5H23V26.5H20L19.415 26.77L16.415 30.535L17 31.75H30.5L31.085 30.535L28.085 26.77L27.5 26.5H24.5V14.5H29.195L26.69 20.5H26V22H26.225C26.4703 22.7432 26.9438 23.39 27.578 23.8485C28.2122 24.3071 28.9749 24.5539 29.7575 24.5539C30.5401 24.5539 31.3028 24.3071 31.937 23.8485C32.5712 23.39 33.0447 22.7432 33.29 22H33.5V20.5H32.945ZM18.83 22.765C18.4992 22.9481 18.1281 23.046 17.75 23.05C17.3764 23.048 17.0096 22.9499 16.685 22.765C16.354 22.5835 16.0751 22.3201 15.875 22H19.625C19.4266 22.3162 19.1536 22.5789 18.83 22.765ZM19.205 20.5H16.205L17.705 16.9L19.205 20.5ZM27.14 28L29 30.25H18.5L20.36 28H27.14ZM29.81 16.93L31.31 20.53H28.31L29.81 16.93ZM30.83 22.795C30.502 22.9851 30.129 23.0835 29.75 23.08C29.3755 23.0853 29.0068 22.9867 28.685 22.795C28.3535 22.601 28.0752 22.3278 27.875 22H31.625C31.4391 22.3337 31.1637 22.6091 30.83 22.795Z" fill="#999999"/>
</svg>
