<svg width="1440" height="833" viewBox="0 0 1440 833" fill="none" xmlns="http://www.w3.org/2000/svg">
<mask id="mask0_1473_5839" style="mask-type:alpha" maskUnits="userSpaceOnUse" x="0" y="0" width="1440" height="833">
<rect width="1440" height="833" fill="#D9D9D9"/>
</mask>
<g mask="url(#mask0_1473_5839)">
<rect y="-1" width="1440" height="839" fill="#F1F5F8"/>
<path d="M-192.013 651.242C-156.827 608.427 -137.338 555.236 -118.866 503.045C-100.395 450.854 -81.7979 397.496 -47.9081 353.639C-14.0321 309.783 38.5523 276.304 93.9667 279.999C202.509 287.251 273.718 406.581 375.109 438.198C407.744 448.381 445.914 447.075 473.126 426.446C511.198 397.593 515.645 338.942 494.121 296.378C472.597 253.813 431.402 224.71 389.384 201.942C357.112 184.452 323.389 169.63 288.677 157.655C244.931 142.582 197.518 130.83 164.744 98.2538C123.2 56.9537 131.718 24.6277 154.525 -5.43399L-308 -5.43403L-308 698.349L-244.249 698.349C-224.69 685.249 -206.972 669.44 -192.013 651.242Z" fill="#FF9D00" fill-opacity="0.2"/>
<path d="M1417.76 546.443C1403.12 565.121 1395.01 588.326 1387.33 611.095C1379.65 633.864 1371.91 657.142 1357.81 676.275C1343.72 695.408 1321.85 710.013 1298.8 708.401C1253.65 705.238 1224.03 653.179 1181.86 639.385C1168.29 634.943 1152.41 635.513 1141.09 644.512C1125.25 657.1 1123.4 682.687 1132.36 701.256C1141.31 719.825 1158.45 732.522 1175.92 742.455C1189.35 750.085 1203.37 756.551 1217.81 761.775C1236.01 768.351 1255.73 773.478 1269.36 787.69C1286.64 805.707 1283.1 819.81 1273.61 832.925H1466V525.892H1439.48C1431.35 531.607 1423.98 538.504 1417.76 546.443Z" fill="#FF9D00" fill-opacity="0.2"/>
</g>
</svg>
