<svg width="1440" height="1191" viewBox="0 0 1440 1191" fill="none" xmlns="http://www.w3.org/2000/svg">
<rect x="1" y="26" width="1440" height="1165" fill="#F1F5F8"/>
<path opacity="0.06" d="M130.593 584.419C185.397 593.508 246.098 582.105 293.428 611.129C328.35 632.526 348.661 673.697 349.854 714.666C351.034 755.648 334.725 795.948 309.647 828.453C259.103 893.981 171.339 928.599 89.807 915.138C39.7244 906.87 -6.70822 881.922 -44.7772 848.401C-82.8337 814.868 -112.885 773.038 -137.206 728.529C-158.98 688.704 -176.556 645.935 -182.381 600.912C-188.218 555.876 -181.554 508.243 -157.778 469.485C-139.566 439.802 -110.612 415.881 -77.0966 405.763C-54.0297 398.796 -48.6081 397.834 -43.0193 420.486C-39.0567 436.55 -33.4862 452.039 -26.0003 466.798C4.52315 526.976 63.4846 573.292 130.593 584.419Z" fill="url(#paint0_linear_1641_5840)"/>
<path opacity="0.06" d="M1352.22 277.419C1297.42 286.508 1236.72 275.105 1189.39 304.129C1154.47 325.526 1134.15 366.697 1132.96 407.666C1131.78 448.648 1148.09 488.948 1173.17 521.453C1223.71 586.981 1311.48 621.599 1393.01 608.138C1443.09 599.87 1489.52 574.922 1527.59 541.401C1565.65 507.868 1595.7 466.038 1620.02 421.529C1641.8 381.704 1659.37 338.935 1665.2 293.912C1671.03 248.876 1664.37 201.243 1640.59 162.485C1622.38 132.802 1593.43 108.881 1559.91 98.7633C1536.85 91.7961 1531.42 90.8336 1525.83 113.486C1521.87 129.55 1516.3 145.039 1508.82 159.798C1478.29 219.976 1419.33 266.292 1352.22 277.419Z" fill="url(#paint1_linear_1641_5840)"/>
<defs>
<linearGradient id="paint0_linear_1641_5840" x1="208.333" y1="518.713" x2="-87.5355" y2="805.85" gradientUnits="userSpaceOnUse">
<stop stop-color="#7ED4EF"/>
<stop offset="0.2294" stop-color="#66BFE6"/>
<stop offset="0.711" stop-color="#298BD0"/>
<stop offset="1" stop-color="#0169C2"/>
</linearGradient>
<linearGradient id="paint1_linear_1641_5840" x1="1274.48" y1="211.713" x2="1570.35" y2="498.85" gradientUnits="userSpaceOnUse">
<stop stop-color="#7ED4EF"/>
<stop offset="0.2294" stop-color="#66BFE6"/>
<stop offset="0.711" stop-color="#298BD0"/>
<stop offset="1" stop-color="#0169C2"/>
</linearGradient>
</defs>
</svg>
