<svg width="1440" height="917" viewBox="0 0 1440 917" fill="none" xmlns="http://www.w3.org/2000/svg">
<rect width="1440" height="917" rx="10" fill="#F1F5F8"/>
<path d="M890.102 174.253C904.867 150.917 935.753 143.969 959.089 158.734L981.796 173.102C1005.13 187.867 1012.08 218.753 997.315 242.089L982.947 264.796C968.182 288.132 937.296 295.079 913.96 280.315L891.253 265.947C867.917 251.182 860.969 220.296 875.734 196.96L890.102 174.253Z" fill="url(#paint0_linear_1519_5844)"/>
<path d="M1466.15 405.253C1480.92 381.917 1511.8 374.969 1535.14 389.734L1720.72 507.153C1744.05 521.918 1751 552.805 1736.24 576.14L1618.82 761.719C1604.05 785.054 1573.17 792.002 1549.83 777.237L1364.25 659.818C1340.92 645.053 1333.97 614.166 1348.73 590.831L1466.15 405.253Z" fill="url(#paint1_linear_1519_5844)"/>
<defs>
<linearGradient id="paint0_linear_1519_5844" x1="970.442" y1="165.918" x2="902.607" y2="273.131" gradientUnits="userSpaceOnUse">
<stop stop-color="#00ABFF" stop-opacity="0.05"/>
<stop offset="1" stop-color="#0499E2" stop-opacity="0.1"/>
</linearGradient>
<linearGradient id="paint1_linear_1519_5844" x1="1627.93" y1="448.444" x2="1457.04" y2="718.527" gradientUnits="userSpaceOnUse">
<stop stop-color="#00ABFF" stop-opacity="0.05"/>
<stop offset="1" stop-color="#0499E2" stop-opacity="0.1"/>
</linearGradient>
</defs>
</svg>
