<svg width="1440" height="380" viewBox="0 0 1440 380" fill="none" xmlns="http://www.w3.org/2000/svg">
<mask id="mask0_374_5161" style="mask-type:alpha" maskUnits="userSpaceOnUse" x="0" y="0" width="1440" height="380">
<rect width="1440" height="380" fill="#C4C4C4"/>
</mask>
<g mask="url(#mask0_374_5161)">
<rect width="1440" height="380" fill="url(#paint0_linear_374_5161)"/>
<path opacity="0.06" d="M276.473 381.923C299.001 319.089 344.438 262.893 343.693 195.415C343.159 145.639 315.442 98.762 277.033 71.9531C238.605 45.1496 190.87 37.0115 145.581 42.8859C54.286 54.7138 -28.7077 124.652 -62.2822 218.091C-82.9064 275.488 -85.5387 339.486 -75.2299 400.11C-64.9026 460.729 -42.1013 518.176 -13.4819 571.318C12.1186 618.879 42.9174 663.9 82.5571 698.071C122.202 732.262 171.442 755.035 221.957 754.421C260.644 753.949 299.951 738.675 328.685 710.032C348.465 690.32 352.47 685.266 334.04 665.302C320.968 651.144 309.362 635.669 299.543 618.651C259.505 549.263 248.883 458.862 276.473 381.923Z" fill="url(#paint1_linear_374_5161)"/>
<path opacity="0.06" d="M551.644 253.851C526.274 351.614 465.681 443.076 475.813 544.094C483.263 618.612 531.069 684.457 592.218 718.521C653.394 752.575 726.026 757.17 793.121 741.153C928.373 708.886 1043.42 590.847 1081.26 445.454C1104.5 356.143 1099.9 259.804 1076.34 170.582C1052.77 81.3716 1010.92 -1.09831 960.923 -76.1896C916.199 -143.397 864.023 -205.97 800.046 -250.872C736.059 -295.804 659.215 -322.094 583.586 -313.129C525.664 -306.26 468.792 -277.109 429.552 -229.602C402.54 -196.909 397.213 -188.696 427.503 -161.708C448.986 -142.57 468.449 -121.224 485.44 -97.2817C554.718 0.341061 582.717 134.141 551.644 253.851Z" fill="url(#paint2_linear_374_5161)"/>
</g>
<defs>
<linearGradient id="paint0_linear_374_5161" x1="0" y1="190" x2="1440" y2="190" gradientUnits="userSpaceOnUse">
<stop stop-color="#00498B"/>
<stop offset="1" stop-color="#008BCF"/>
</linearGradient>
<linearGradient id="paint1_linear_374_5161" x1="383.42" y1="341.84" x2="-63.8009" y2="451.598" gradientUnits="userSpaceOnUse">
<stop stop-color="#7ED4EF"/>
<stop offset="0.2294" stop-color="#66BFE6"/>
<stop offset="0.711" stop-color="#298BD0"/>
<stop offset="1" stop-color="#0169C2"/>
</linearGradient>
<linearGradient id="paint2_linear_374_5161" x1="396.708" y1="330.958" x2="1055.56" y2="104.628" gradientUnits="userSpaceOnUse">
<stop stop-color="#7ED4EF"/>
<stop offset="0.2294" stop-color="#66BFE6"/>
<stop offset="0.711" stop-color="#298BD0"/>
<stop offset="1" stop-color="#0169C2"/>
</linearGradient>
</defs>
</svg>
