<svg width="1162" height="334" viewBox="0 0 1162 334" fill="none" xmlns="http://www.w3.org/2000/svg"><mask id="a" style="mask-type:alpha" maskUnits="userSpaceOnUse" x="0" y="0" width="1162" height="334"><rect width="1162" height="334" rx="30" fill="#C4C4C4"/></mask><g mask="url(#a)"><rect width="1162" height="334" rx="30" fill="url(#paint0_linear_338_7048)"/><path opacity=".06" d="M223.098 241.829c18.179-27.933 54.844-52.915 54.243-82.912-.43-22.128-22.797-42.967-53.791-54.885-31.009-11.915-69.528-15.533-106.074-12.921-73.67 5.258-140.642 36.348-167.734 77.887-16.643 25.515-18.767 53.965-10.448 80.916 8.333 26.948 26.733 52.485 49.827 76.11 20.658 21.143 45.511 41.157 77.498 56.348 31.991 15.199 71.725 25.323 112.488 25.05 31.219-.21 62.937-7 86.124-19.733 15.961-8.763 19.193-11.01 4.32-19.885-10.547-6.294-19.913-13.173-27.837-20.739-32.308-30.846-40.879-71.033-18.616-105.236z" fill="url(#paint1_linear_338_7048)"/><path opacity=".06" d="M445.146 184.895c-20.473 43.46-69.368 84.119-61.192 129.026 6.012 33.128 44.588 62.399 93.932 77.542 49.366 15.138 107.976 17.181 162.118 10.061 109.141-14.344 201.977-66.819 232.51-131.453 18.756-39.703 15.04-82.53-3.964-122.193-19.025-39.659-52.796-76.32-93.139-109.702-36.09-29.877-78.193-57.694-129.819-77.655C593.958-59.453 531.95-71.14 470.921-67.155c-46.739 3.054-92.633 16.013-124.297 37.132-21.797 14.534-26.096 18.185-1.653 30.182 17.335 8.508 33.041 17.997 46.752 28.64 55.903 43.399 78.497 102.879 53.423 156.096z" fill="url(#paint2_linear_338_7048)"/></g><path d="M98.219 116.876h9.558c4.145 0 7.273.601 9.382 1.802 2.11 1.201 3.164 3.274 3.164 6.218 0 1.23-.219 2.344-.659 3.34a6.162 6.162 0 01-1.868 2.439c-.82.63-1.831 1.054-3.032 1.274v.22c1.245.22 2.351.608 3.318 1.164.981.557 1.751 1.355 2.307 2.396.571 1.04.857 2.387.857 4.042 0 1.963-.469 3.633-1.406 5.01-.923 1.377-2.249 2.425-3.977 3.142-1.714.718-3.75 1.077-6.109 1.077H98.219v-32.124zm5.273 13.249h5.054c2.388 0 4.043-.388 4.966-1.164.923-.776 1.384-1.912 1.384-3.406 0-1.523-.549-2.622-1.648-3.296-1.084-.674-2.812-1.01-5.186-1.01h-4.57v8.876zm0 4.263v10.195h5.559c2.461 0 4.19-.476 5.186-1.428.996-.952 1.494-2.241 1.494-3.867 0-.996-.227-1.86-.681-2.593-.44-.732-1.165-1.296-2.175-1.692-1.011-.41-2.374-.615-4.087-.615h-5.296zm33.687-10.173c2.168 0 4.029.447 5.581 1.34 1.553.894 2.747 2.161 3.582 3.801.835 1.641 1.252 3.604 1.252 5.889v2.769h-16.237c.058 2.358.688 4.174 1.889 5.449 1.216 1.274 2.915 1.912 5.098 1.912 1.553 0 2.944-.147 4.175-.44a23.198 23.198 0 003.845-1.34v4.197a16.855 16.855 0 01-3.713 1.252c-1.26.264-2.769.395-4.527.395-2.387 0-4.489-.461-6.306-1.384-1.802-.937-3.215-2.329-4.241-4.175-1.01-1.845-1.516-4.138-1.516-6.877 0-2.725.462-5.039 1.385-6.943.922-1.905 2.219-3.355 3.889-4.351s3.618-1.494 5.844-1.494zm0 3.889c-1.626 0-2.944.527-3.955 1.582-.996 1.055-1.582 2.6-1.757 4.636h11.074c-.015-1.216-.22-2.292-.615-3.23-.381-.937-.967-1.67-1.758-2.197-.777-.527-1.773-.791-2.989-.791zm28.7-3.889c.41 0 .857.022 1.34.066.484.044.901.102 1.253.176l-.484 4.834a6.502 6.502 0 00-1.142-.198c-.44-.044-.835-.066-1.187-.066a7.58 7.58 0 00-2.637.461 6.104 6.104 0 00-2.219 1.363c-.644.6-1.15 1.355-1.516 2.263-.366.908-.549 1.963-.549 3.164V149h-5.186v-24.324h4.043l.703 4.285h.242a10.795 10.795 0 011.802-2.373 8.451 8.451 0 012.461-1.714c.937-.439 1.963-.659 3.076-.659zm14.175 35.596c-3.295 0-5.822-.594-7.58-1.78-1.758-1.187-2.637-2.849-2.637-4.988 0-1.494.469-2.761 1.406-3.801.938-1.026 2.278-1.736 4.021-2.132-.659-.293-1.23-.747-1.713-1.362a3.416 3.416 0 01-.704-2.087c0-.909.257-1.685.769-2.329.513-.645 1.282-1.268 2.308-1.868-1.275-.542-2.3-1.421-3.077-2.637-.761-1.23-1.142-2.673-1.142-4.328 0-1.758.373-3.252 1.12-4.483.747-1.245 1.839-2.19 3.274-2.834 1.436-.66 3.172-.989 5.208-.989.439 0 .915.029 1.428.088.527.044 1.011.102 1.45.176.454.058.799.124 1.033.197h8.416v2.879l-4.131.769c.395.556.71 1.194.944 1.911.235.704.352 1.473.352 2.308 0 2.519-.872 4.504-2.615 5.954-1.728 1.436-4.116 2.153-7.163 2.153a24.428 24.428 0 01-2.131-.175c-.527.322-.93.681-1.209 1.076a2.144 2.144 0 00-.417 1.297c0 .395.139.717.417.966.279.235.689.411 1.231.528.556.117 1.23.176 2.021.176h4.197c2.666 0 4.702.564 6.108 1.692 1.407 1.127 2.11 2.783 2.11 4.965 0 2.769-1.143 4.9-3.428 6.394-2.285 1.509-5.574 2.264-9.866 2.264zm.198-3.626c1.802 0 3.318-.176 4.549-.527 1.23-.352 2.16-.857 2.79-1.516.63-.645.945-1.414.945-2.308 0-.791-.198-1.398-.593-1.823-.396-.425-.989-.718-1.78-.879-.791-.161-1.773-.242-2.945-.242h-3.823c-.952 0-1.794.147-2.527.44-.732.307-1.303.747-1.713 1.318-.396.571-.594 1.26-.594 2.065 0 1.114.491 1.971 1.472 2.571.997.601 2.403.901 4.219.901zm1.011-18.94c1.509 0 2.629-.411 3.362-1.231.732-.835 1.098-2.007 1.098-3.515 0-1.641-.381-2.872-1.142-3.692-.747-.82-1.861-1.23-3.34-1.23-1.45 0-2.556.417-3.318 1.252-.747.835-1.121 2.073-1.121 3.713 0 1.48.374 2.637 1.121 3.472.762.82 1.875 1.231 3.34 1.231zm26.48-13.03c3.076 0 5.398.681 6.965 2.043 1.582 1.363 2.374 3.487 2.374 6.372V149h-3.67l-.989-3.45h-.175c-.689.879-1.399 1.604-2.132 2.176a7.438 7.438 0 01-2.549 1.274c-.952.293-2.116.439-3.493.439-1.451 0-2.747-.263-3.889-.791a6.18 6.18 0 01-2.703-2.46c-.659-1.099-.989-2.491-.989-4.175 0-2.505.93-4.388 2.791-5.647 1.875-1.26 4.702-1.956 8.481-2.088l4.219-.153v-1.275c0-1.684-.396-2.886-1.187-3.603-.776-.718-1.875-1.077-3.296-1.077-1.215 0-2.395.176-3.537.527a24.993 24.993 0 00-3.34 1.297l-1.67-3.648c1.187-.63 2.534-1.142 4.043-1.538a18.835 18.835 0 014.746-.593zm4.219 13.161l-3.142.11c-2.578.088-4.387.528-5.427 1.319-1.04.791-1.561 1.875-1.561 3.252 0 1.201.359 2.08 1.077 2.636.718.542 1.663.813 2.835.813 1.787 0 3.266-.505 4.438-1.516 1.187-1.025 1.78-2.527 1.78-4.504v-2.11zm17.647-22.565v8.239c0 .952-.029 1.89-.088 2.813a61.035 61.035 0 01-.132 2.131h.22c.659-1.055 1.575-1.941 2.747-2.659 1.186-.732 2.702-1.098 4.548-1.098 2.886 0 5.208 1.062 6.965 3.186 1.758 2.109 2.637 5.237 2.637 9.382 0 2.754-.403 5.069-1.208 6.944-.806 1.875-1.941 3.295-3.406 4.262-1.45.952-3.157 1.428-5.12 1.428-1.846 0-3.34-.336-4.482-1.01-1.128-.689-2.014-1.487-2.659-2.395h-.373l-.945 2.966h-3.867v-34.189h5.163zm5.933 13.623c-1.465 0-2.63.293-3.494.878-.85.586-1.465 1.465-1.846 2.637-.381 1.157-.578 2.63-.593 4.417v.461c0 2.71.425 4.783 1.274 6.218.865 1.436 2.432 2.154 4.703 2.154 1.801 0 3.186-.725 4.152-2.176.967-1.464 1.451-3.559 1.451-6.284 0-2.754-.484-4.826-1.451-6.218-.952-1.392-2.351-2.087-4.196-2.087zm38.279-3.758V149h-4.065l-.703-3.274h-.285a7.002 7.002 0 01-1.956 2.087 8.663 8.663 0 01-2.637 1.209 11 11 0 01-3.054.417c-1.831 0-3.398-.307-4.702-.922-1.289-.63-2.278-1.597-2.966-2.901-.689-1.304-1.033-2.988-1.033-5.054v-15.886h5.185v14.92c0 1.889.381 3.303 1.143 4.24.776.938 1.978 1.407 3.604 1.407 1.567 0 2.812-.323 3.735-.967.923-.645 1.575-1.597 1.955-2.857.396-1.259.594-2.805.594-4.636v-12.107h5.185zm20.218-.461c2.74 0 4.871.71 6.394 2.131 1.538 1.406 2.307 3.67 2.307 6.79V149h-5.163v-14.897c0-1.89-.388-3.304-1.165-4.241-.776-.952-1.977-1.428-3.603-1.428-2.359 0-3.999.725-4.922 2.175-.908 1.45-1.362 3.552-1.362 6.306V149h-5.164v-24.324h4.021l.725 3.296h.286a7.033 7.033 0 011.955-2.087 8.76 8.76 0 012.637-1.253c.981-.278 2-.417 3.054-.417zm23.009 35.596c-3.296 0-5.823-.594-7.581-1.78-1.758-1.187-2.637-2.849-2.637-4.988 0-1.494.469-2.761 1.407-3.801.937-1.026 2.278-1.736 4.021-2.132a4.484 4.484 0 01-1.714-1.362 3.415 3.415 0 01-.703-2.087c0-.909.256-1.685.769-2.329.512-.645 1.282-1.268 2.307-1.868-1.274-.542-2.3-1.421-3.076-2.637-.762-1.23-1.143-2.673-1.143-4.328 0-1.758.374-3.252 1.121-4.483.747-1.245 1.838-2.19 3.274-2.834 1.435-.66 3.171-.989 5.207-.989.44 0 .916.029 1.428.088.528.044 1.011.102 1.451.176.454.058.798.124 1.032.197h8.416v2.879l-4.131.769a7.06 7.06 0 01.945 1.911c.234.704.351 1.473.351 2.308 0 2.519-.871 4.504-2.614 5.954-1.729 1.436-4.117 2.153-7.163 2.153a24.451 24.451 0 01-2.132-.175c-.527.322-.93.681-1.208 1.076a2.139 2.139 0 00-.418 1.297c0 .395.139.717.418.966.278.235.688.411 1.23.528.557.117 1.231.176 2.022.176h4.196c2.666 0 4.703.564 6.109 1.692 1.406 1.127 2.109 2.783 2.109 4.965 0 2.769-1.142 4.9-3.428 6.394-2.285 1.509-5.573 2.264-9.865 2.264zm.198-3.626c1.801 0 3.317-.176 4.548-.527 1.23-.352 2.161-.857 2.79-1.516.63-.645.945-1.414.945-2.308 0-.791-.198-1.398-.593-1.823-.396-.425-.989-.718-1.78-.879-.791-.161-1.772-.242-2.944-.242h-3.823c-.953 0-1.795.147-2.527.44-.733.307-1.304.747-1.714 1.318-.396.571-.593 1.26-.593 2.065 0 1.114.49 1.971 1.472 2.571.996.601 2.402.901 4.219.901zm1.01-18.94c1.509 0 2.63-.411 3.362-1.231.733-.835 1.099-2.007 1.099-3.515 0-1.641-.381-2.872-1.143-3.692-.747-.82-1.86-1.23-3.34-1.23-1.45 0-2.556.417-3.318 1.252-.747.835-1.12 2.073-1.12 3.713 0 1.48.373 2.637 1.12 3.472.762.82 1.875 1.231 3.34 1.231zm55.378-4.615c0 3.619-.674 6.643-2.022 9.075-1.347 2.417-3.303 4.241-5.866 5.471-2.564 1.216-5.655 1.824-9.273 1.824h-8.921v-32.124h9.888c3.325 0 6.196.601 8.613 1.802 2.417 1.186 4.285 2.951 5.603 5.295 1.319 2.329 1.978 5.215 1.978 8.657zm-5.493.154c0-2.637-.418-4.805-1.253-6.504-.82-1.699-2.036-2.959-3.647-3.779-1.597-.835-3.567-1.252-5.911-1.252h-4.504v23.334h3.735c3.882 0 6.782-.988 8.701-2.966 1.919-1.977 2.879-4.922 2.879-8.833zm21.712-8.569c2.168 0 4.028.447 5.581 1.34 1.552.894 2.746 2.161 3.581 3.801.835 1.641 1.253 3.604 1.253 5.889v2.769H384.03c.059 2.358.688 4.174 1.89 5.449 1.215 1.274 2.915 1.912 5.097 1.912 1.553 0 2.945-.147 4.175-.44a23.198 23.198 0 003.845-1.34v4.197a16.837 16.837 0 01-3.713 1.252c-1.26.264-2.769.395-4.527.395-2.387 0-4.489-.461-6.306-1.384-1.801-.937-3.215-2.329-4.24-4.175-1.011-1.845-1.517-4.138-1.517-6.877 0-2.725.462-5.039 1.385-6.943.923-1.905 2.219-3.355 3.889-4.351s3.618-1.494 5.845-1.494zm0 3.889c-1.626 0-2.945.527-3.955 1.582-.997 1.055-1.582 2.6-1.758 4.636h11.074c-.015-1.216-.22-2.292-.615-3.23-.381-.937-.967-1.67-1.758-2.197-.776-.527-1.773-.791-2.988-.791zm29.051-3.889c2.739 0 4.87.71 6.394 2.131 1.538 1.406 2.307 3.67 2.307 6.79V149h-5.164v-14.897c0-1.89-.388-3.304-1.164-4.241-.777-.952-1.978-1.428-3.604-1.428-2.358 0-3.999.725-4.922 2.175-.908 1.45-1.362 3.552-1.362 6.306V149h-5.164v-24.324h4.021l.726 3.296h.285a7.036 7.036 0 011.956-2.087 8.765 8.765 0 012.636-1.253c.982-.278 2-.417 3.055-.417zm23.008 35.596c-3.296 0-5.823-.594-7.58-1.78-1.758-1.187-2.637-2.849-2.637-4.988 0-1.494.469-2.761 1.406-3.801.938-1.026 2.278-1.736 4.021-2.132-.659-.293-1.23-.747-1.714-1.362a3.422 3.422 0 01-.703-2.087c0-.909.257-1.685.769-2.329.513-.645 1.282-1.268 2.307-1.868-1.274-.542-2.299-1.421-3.076-2.637-.762-1.23-1.142-2.673-1.142-4.328 0-1.758.373-3.252 1.12-4.483.747-1.245 1.839-2.19 3.274-2.834 1.436-.66 3.172-.989 5.208-.989.439 0 .915.029 1.428.088.527.044 1.011.102 1.45.176a6.47 6.47 0 011.033.197h8.415v2.879l-4.131.769c.396.556.711 1.194.945 1.911.235.704.352 1.473.352 2.308 0 2.519-.872 4.504-2.615 5.954-1.728 1.436-4.116 2.153-7.163 2.153a24.428 24.428 0 01-2.131-.175c-.528.322-.93.681-1.209 1.076a2.144 2.144 0 00-.417 1.297c0 .395.139.717.417.966.279.235.689.411 1.231.528.556.117 1.23.176 2.021.176h4.197c2.666 0 4.702.564 6.108 1.692 1.407 1.127 2.11 2.783 2.11 4.965 0 2.769-1.143 4.9-3.428 6.394-2.285 1.509-5.574 2.264-9.866 2.264zm.198-3.626c1.802 0 3.318-.176 4.548-.527 1.231-.352 2.161-.857 2.791-1.516.63-.645.945-1.414.945-2.308 0-.791-.198-1.398-.594-1.823-.395-.425-.988-.718-1.779-.879-.791-.161-1.773-.242-2.945-.242h-3.823c-.952 0-1.794.147-2.527.44-.732.307-1.304.747-1.714 1.318-.395.571-.593 1.26-.593 2.065 0 1.114.491 1.971 1.472 2.571.996.601 2.403.901 4.219.901zm1.011-18.94c1.509 0 2.629-.411 3.362-1.231.732-.835 1.098-2.007 1.098-3.515 0-1.641-.381-2.872-1.142-3.692-.747-.82-1.861-1.23-3.34-1.23-1.45 0-2.556.417-3.318 1.252-.747.835-1.121 2.073-1.121 3.713 0 1.48.374 2.637 1.121 3.472.762.82 1.875 1.231 3.34 1.231zm26.48-13.03c3.076 0 5.398.681 6.965 2.043 1.582 1.363 2.373 3.487 2.373 6.372V149h-3.669l-.989-3.45h-.176c-.688.879-1.399 1.604-2.131 2.176a7.438 7.438 0 01-2.549 1.274c-.952.293-2.117.439-3.493.439-1.451 0-2.747-.263-3.89-.791a6.183 6.183 0 01-2.702-2.46c-.659-1.099-.989-2.491-.989-4.175 0-2.505.93-4.388 2.79-5.647 1.875-1.26 4.703-1.956 8.482-2.088l4.219-.153v-1.275c0-1.684-.396-2.886-1.187-3.603-.776-.718-1.875-1.077-3.296-1.077-1.216 0-2.395.176-3.537.527a24.993 24.993 0 00-3.34 1.297l-1.67-3.648c1.186-.63 2.534-1.142 4.043-1.538a18.829 18.829 0 014.746-.593zm4.219 13.161l-3.142.11c-2.579.088-4.388.528-5.428 1.319-1.04.791-1.56 1.875-1.56 3.252 0 1.201.359 2.08 1.077 2.636.718.542 1.663.813 2.834.813 1.788 0 3.267-.505 4.439-1.516 1.186-1.025 1.78-2.527 1.78-4.504v-2.11zm25.162-13.161c2.739 0 4.87.71 6.394 2.131 1.538 1.406 2.307 3.67 2.307 6.79V149h-5.164v-14.897c0-1.89-.388-3.304-1.164-4.241-.777-.952-1.978-1.428-3.604-1.428-2.358 0-3.999.725-4.922 2.175-.908 1.45-1.362 3.552-1.362 6.306V149h-5.164v-24.324h4.021l.725 3.296h.286a7.023 7.023 0 011.956-2.087 8.765 8.765 0 012.636-1.253c.982-.278 2-.417 3.055-.417zM122.718 212h-6.064l-9.998-14.59-3.164 2.571V212h-5.273v-32.124h5.273v15.359c.645-.791 1.297-1.582 1.956-2.373l1.977-2.373 9.053-10.613h5.955l-11.997 14.062L122.718 212zm25.382-12.217c0 2.022-.264 3.816-.791 5.384-.528 1.567-1.297 2.893-2.307 3.977a10.17 10.17 0 01-3.648 2.46c-1.421.557-3.025.835-4.812.835-1.67 0-3.2-.278-4.592-.835a10.478 10.478 0 01-3.626-2.46c-1.01-1.084-1.794-2.41-2.351-3.977-.556-1.568-.835-3.362-.835-5.384 0-2.68.462-4.951 1.385-6.811.937-1.875 2.27-3.304 3.999-4.285 1.728-.981 3.786-1.472 6.174-1.472 2.241 0 4.219.491 5.933 1.472 1.714.981 3.054 2.41 4.021 4.285.966 1.875 1.45 4.145 1.45 6.811zm-17.644 0c0 1.773.212 3.289.637 4.549.439 1.259 1.113 2.226 2.021 2.9.909.659 2.081.989 3.516.989 1.436 0 2.608-.33 3.516-.989.908-.674 1.574-1.641 1.999-2.9.425-1.26.637-2.776.637-4.549 0-1.772-.212-3.274-.637-4.504-.425-1.245-1.091-2.19-1.999-2.835-.908-.659-2.088-.988-3.538-.988-2.139 0-3.699.717-4.68 2.153-.981 1.435-1.472 3.494-1.472 6.174zm51.199-12.568c2.725 0 4.776.703 6.153 2.109 1.391 1.406 2.087 3.662 2.087 6.768V212h-5.164v-14.985c0-1.846-.358-3.238-1.076-4.175-.718-.938-1.809-1.406-3.274-1.406-2.051 0-3.53.659-4.439 1.977-.893 1.304-1.34 3.201-1.34 5.691V212h-5.164v-14.985c0-1.231-.161-2.256-.483-3.077-.308-.834-.784-1.457-1.428-1.867-.645-.425-1.458-.637-2.439-.637-1.421 0-2.556.322-3.406.966-.835.645-1.435 1.597-1.802 2.857-.366 1.245-.549 2.776-.549 4.592V212h-5.164v-24.324h4.021l.726 3.274h.285a6.889 6.889 0 011.846-2.087 7.727 7.727 0 012.483-1.231 9.628 9.628 0 012.834-.417c1.817 0 3.347.322 4.593.967 1.245.63 2.175 1.596 2.79 2.9h.396c.761-1.318 1.823-2.292 3.186-2.922a10.188 10.188 0 014.328-.945zm36.786.461V212h-4.065l-.703-3.274h-.286a7.002 7.002 0 01-1.956 2.087 8.669 8.669 0 01-2.636 1.209c-.967.278-1.985.417-3.055.417-1.831 0-3.398-.307-4.702-.922-1.289-.63-2.278-1.597-2.966-2.901-.688-1.304-1.033-2.988-1.033-5.054v-15.886h5.186v14.92c0 1.889.381 3.303 1.142 4.24.777.938 1.978 1.407 3.604 1.407 1.567 0 2.812-.323 3.735-.967.923-.645 1.575-1.597 1.956-2.857.395-1.259.593-2.805.593-4.636v-12.107h5.186zm20.218-.461c2.739 0 4.87.71 6.394 2.131 1.538 1.406 2.307 3.67 2.307 6.79V212h-5.164v-14.897c0-1.89-.388-3.304-1.164-4.241-.777-.952-1.978-1.428-3.604-1.428-2.358 0-3.999.725-4.922 2.175-.908 1.45-1.362 3.552-1.362 6.306V212h-5.164v-24.324h4.021l.726 3.296h.285a7.036 7.036 0 011.956-2.087 8.765 8.765 0 012.636-1.253c.982-.278 2-.417 3.055-.417zm21.228.461V212h-5.163v-24.324h5.163zm-2.548-9.316c.791 0 1.472.212 2.043.637.586.425.879 1.157.879 2.197 0 1.026-.293 1.758-.879 2.198-.571.424-1.252.637-2.043.637-.821 0-1.517-.213-2.088-.637-.556-.44-.835-1.172-.835-2.198 0-1.04.279-1.772.835-2.197.571-.425 1.267-.637 2.088-.637zm19.141 29.905c.674 0 1.34-.059 1.999-.176.66-.132 1.26-.286 1.802-.462v3.912c-.571.249-1.311.461-2.219.637a14.87 14.87 0 01-2.835.263c-1.376 0-2.614-.227-3.713-.681-1.099-.468-1.97-1.267-2.615-2.395-.644-1.128-.966-2.688-.966-4.68v-13.074h-3.318v-2.307l3.559-1.823 1.692-5.208h3.252v5.405h6.965v3.933h-6.965v13.008c0 1.231.308 2.146.923 2.747.615.6 1.428.901 2.439.901zm18.416-21.05c3.076 0 5.398.681 6.966 2.043 1.582 1.363 2.373 3.487 2.373 6.372V212h-3.67l-.989-3.45h-.175c-.689.879-1.399 1.604-2.132 2.176A7.438 7.438 0 01294.72 212c-.952.293-2.116.439-3.493.439-1.45 0-2.747-.263-3.889-.791a6.18 6.18 0 01-2.703-2.46c-.659-1.099-.989-2.491-.989-4.175 0-2.505.93-4.388 2.791-5.647 1.875-1.26 4.702-1.956 8.481-2.088l4.219-.153v-1.275c0-1.684-.396-2.886-1.187-3.603-.776-.718-1.875-1.077-3.296-1.077-1.215 0-2.395.176-3.537.527a24.993 24.993 0 00-3.34 1.297l-1.67-3.648c1.187-.63 2.534-1.142 4.043-1.538a18.84 18.84 0 014.746-.593zm4.219 13.161l-3.142.11c-2.578.088-4.387.528-5.427 1.319-1.04.791-1.56 1.875-1.56 3.252 0 1.201.358 2.08 1.076 2.636.718.542 1.663.813 2.835.813 1.787 0 3.266-.505 4.438-1.516 1.187-1.025 1.78-2.527 1.78-4.504v-2.11zm28.831 4.681c0 1.596-.388 2.944-1.164 4.043-.777 1.098-1.912 1.933-3.406 2.504-1.48.557-3.296.835-5.449.835-1.7 0-3.164-.124-4.395-.373a15.04 15.04 0 01-3.45-1.099v-4.46a24.511 24.511 0 003.89 1.406c1.45.396 2.819.593 4.108.593 1.7 0 2.923-.263 3.67-.791.747-.542 1.121-1.259 1.121-2.153a2.28 2.28 0 00-.462-1.406c-.293-.425-.85-.857-1.67-1.297-.805-.454-1.992-.996-3.559-1.626-1.538-.615-2.835-1.23-3.89-1.845-1.054-.616-1.853-1.355-2.395-2.22-.542-.878-.813-1.999-.813-3.361 0-2.154.85-3.787 2.549-4.9 1.714-1.128 3.977-1.692 6.79-1.692 1.494 0 2.9.154 4.219.461 1.333.293 2.636.725 3.911 1.297l-1.626 3.889a24.317 24.317 0 00-3.318-1.187 11.894 11.894 0 00-3.362-.483c-1.333 0-2.351.205-3.054.615-.689.41-1.033.996-1.033 1.758 0 .571.169 1.055.505 1.45.337.396.916.791 1.736 1.187.835.395 1.993.886 3.472 1.472 1.45.556 2.703 1.142 3.757 1.758 1.07.6 1.89 1.34 2.461 2.219.572.879.857 2.014.857 3.406zM370.514 212h-6.065l-9.997-14.59-3.164 2.571V212h-5.274v-32.124h5.274v15.359a272.18 272.18 0 011.955-2.373l1.978-2.373 9.052-10.613h5.955l-11.997 14.062L370.514 212zm13.384-24.785c3.076 0 5.398.681 6.965 2.043 1.582 1.363 2.373 3.487 2.373 6.372V212h-3.669l-.989-3.45h-.176c-.688.879-1.398 1.604-2.131 2.176a7.438 7.438 0 01-2.549 1.274c-.952.293-2.116.439-3.493.439-1.451 0-2.747-.263-3.89-.791a6.183 6.183 0 01-2.702-2.46c-.659-1.099-.989-2.491-.989-4.175 0-2.505.93-4.388 2.791-5.647 1.875-1.26 4.702-1.956 8.481-2.088l4.219-.153v-1.275c0-1.684-.396-2.886-1.187-3.603-.776-.718-1.875-1.077-3.296-1.077-1.215 0-2.395.176-3.537.527a24.993 24.993 0 00-3.34 1.297l-1.67-3.648c1.187-.63 2.534-1.142 4.043-1.538a18.829 18.829 0 014.746-.593zm4.219 13.161l-3.142.11c-2.578.088-4.387.528-5.428 1.319-1.04.791-1.56 1.875-1.56 3.252 0 1.201.359 2.08 1.077 2.636.718.542 1.663.813 2.835.813 1.787 0 3.266-.505 4.438-1.516 1.187-1.025 1.78-2.527 1.78-4.504v-2.11zm39.971-13.161c2.725 0 4.776.703 6.153 2.109 1.391 1.406 2.087 3.662 2.087 6.768V212h-5.164v-14.985c0-1.846-.358-3.238-1.076-4.175-.718-.938-1.809-1.406-3.274-1.406-2.051 0-3.53.659-4.439 1.977-.893 1.304-1.34 3.201-1.34 5.691V212h-5.164v-14.985c0-1.231-.161-2.256-.483-3.077-.308-.834-.784-1.457-1.428-1.867-.645-.425-1.458-.637-2.439-.637-1.421 0-2.556.322-3.406.966-.835.645-1.435 1.597-1.802 2.857-.366 1.245-.549 2.776-.549 4.592V212H400.6v-24.324h4.021l.726 3.274h.285a6.889 6.889 0 011.846-2.087 7.727 7.727 0 012.483-1.231 9.628 9.628 0 012.834-.417c1.817 0 3.347.322 4.593.967 1.245.63 2.175 1.596 2.79 2.9h.396c.761-1.318 1.823-2.292 3.186-2.922a10.188 10.188 0 014.328-.945zm20.746.461V212h-5.164v-24.324h5.164zm-2.549-9.316c.791 0 1.472.212 2.043.637.586.425.879 1.157.879 2.197 0 1.026-.293 1.758-.879 2.198-.571.424-1.252.637-2.043.637-.821 0-1.516-.213-2.088-.637-.556-.44-.835-1.172-.835-2.198 0-1.04.279-1.772.835-2.197.572-.425 1.267-.637 2.088-.637z" fill="#fff"/><rect x="853" y="138" width="215" height="66" rx="33" fill="#fff"/><path d="M888.377 184.372c-.394 0-.738-.025-1.031-.075a3.837 3.837 0 01-.774-.183v-2.159c.229.057.477.107.741.15.265.043.548.065.849.065.394 0 .752-.075 1.074-.226.323-.15.577-.422.763-.816.193-.394.29-.949.29-1.665v-15.168h2.578v15.082c0 1.167-.186 2.116-.558 2.847-.373.737-.896 1.278-1.569 1.622-.673.351-1.461.526-2.363.526zm18.82-10.345c0 .989-.129 1.866-.386 2.632-.258.766-.634 1.415-1.128 1.945a4.997 4.997 0 01-1.784 1.203c-.694.272-1.478.408-2.352.408-.817 0-1.565-.136-2.245-.408a5.144 5.144 0 01-1.773-1.203c-.494-.53-.877-1.179-1.149-1.945s-.408-1.643-.408-2.632c0-1.31.225-2.42.676-3.33.459-.916 1.11-1.615 1.956-2.094.845-.48 1.851-.72 3.018-.72 1.096 0 2.063.24 2.9.72.838.479 1.494 1.178 1.966 2.094.473.917.709 2.027.709 3.33zm-8.626 0c0 .867.104 1.608.312 2.224.215.616.544 1.089.988 1.418.444.322 1.017.483 1.719.483.702 0 1.275-.161 1.719-.483.444-.329.769-.802.977-1.418.208-.616.312-1.357.312-2.224 0-.866-.104-1.6-.312-2.202-.208-.609-.533-1.07-.977-1.386-.444-.322-1.021-.483-1.73-.483-1.045 0-1.808.351-2.288 1.053-.48.702-.72 1.708-.72 3.018zm14.051-5.919V180h-2.524v-11.892h2.524zm-1.246-4.554c.387 0 .72.104.999.311.286.208.43.566.43 1.074 0 .502-.144.86-.43 1.075a1.63 1.63 0 01-.999.311c-.401 0-.741-.104-1.021-.311-.272-.215-.408-.573-.408-1.075 0-.508.136-.866.408-1.074.28-.207.62-.311 1.021-.311zm11.064 4.329c1.34 0 2.382.347 3.126 1.042.752.687 1.128 1.794 1.128 3.319V180h-2.524v-7.283c0-.924-.19-1.615-.569-2.073-.38-.466-.967-.699-1.762-.699-1.153 0-1.955.355-2.406 1.064-.444.709-.666 1.736-.666 3.083V180h-2.525v-11.892h1.966l.354 1.612h.14a3.44 3.44 0 01.956-1.021 4.29 4.29 0 011.289-.612c.48-.136.978-.204 1.493-.204zm22.828 7.842c0 .931-.23 1.733-.688 2.406-.451.673-1.103 1.189-1.955 1.547-.845.358-1.855.537-3.029.537-.573 0-1.121-.032-1.644-.097a11.2 11.2 0 01-1.482-.279 8.027 8.027 0 01-1.257-.462v-2.428c.637.28 1.35.534 2.138.763a8.82 8.82 0 002.406.333c.666 0 1.217-.086 1.654-.258.444-.179.774-.43.988-.752.215-.329.323-.712.323-1.149 0-.466-.126-.86-.376-1.182-.251-.322-.631-.616-1.139-.881a18.976 18.976 0 00-1.891-.87 12.95 12.95 0 01-1.482-.709 6.012 6.012 0 01-1.246-.934 4.056 4.056 0 01-.87-1.268c-.208-.494-.312-1.074-.312-1.74 0-.888.212-1.647.634-2.278.43-.63 1.031-1.113 1.805-1.45.78-.336 1.69-.505 2.728-.505.824 0 1.597.086 2.321.258.73.172 1.446.416 2.148.731l-.816 2.073a14.656 14.656 0 00-1.88-.634 7.293 7.293 0 00-1.848-.236c-.544 0-1.006.082-1.386.247-.379.165-.669.397-.87.698-.193.294-.29.645-.29 1.053 0 .458.111.845.333 1.16.229.308.58.591 1.053.849.48.257 1.096.544 1.848.859.866.358 1.6.734 2.202 1.128.608.394 1.074.866 1.396 1.418.322.544.484 1.228.484 2.052zm7.508-7.842c1.06 0 1.97.218 2.729.655a4.39 4.39 0 011.751 1.858c.408.803.612 1.762.612 2.879v1.354h-7.938c.028 1.153.336 2.041.924 2.664.594.623 1.425.935 2.492.935.759 0 1.439-.072 2.041-.215a11.383 11.383 0 001.88-.656v2.052c-.595.279-1.2.484-1.816.612-.616.129-1.353.194-2.213.194-1.167 0-2.195-.226-3.083-.677-.881-.458-1.572-1.139-2.073-2.041-.494-.902-.741-2.023-.741-3.362 0-1.332.225-2.464.677-3.395.451-.931 1.085-1.64 1.901-2.127.816-.487 1.769-.73 2.857-.73zm0 1.901c-.795 0-1.439.258-1.933.774-.487.515-.774 1.271-.86 2.266h5.414c-.007-.594-.107-1.121-.3-1.579a2.297 2.297 0 00-.86-1.074c-.379-.258-.866-.387-1.461-.387zm10.463-6.499v8.078c0 .366-.014.767-.043 1.203-.028.43-.057.835-.086 1.214h.054c.186-.25.408-.544.666-.881.265-.336.516-.63.752-.88l3.631-3.911h2.9l-4.759 5.114 5.071 6.778h-2.965l-3.803-5.221-1.418 1.214V180h-2.524v-16.715h2.524zm14.749 4.598c1.504 0 2.639.333 3.406.999.773.666 1.16 1.704 1.16 3.115V180h-1.794l-.484-1.687h-.086c-.336.43-.683.785-1.042 1.064a3.64 3.64 0 01-1.246.623c-.465.143-1.034.215-1.708.215-.709 0-1.342-.129-1.901-.387a3.018 3.018 0 01-1.321-1.203c-.323-.537-.484-1.217-.484-2.041 0-1.225.455-2.145 1.365-2.761.916-.616 2.298-.956 4.146-1.02l2.063-.075v-.624c0-.823-.194-1.41-.581-1.761-.379-.351-.916-.527-1.611-.527a5.84 5.84 0 00-1.729.258c-.559.172-1.103.383-1.633.634l-.817-1.783a9.13 9.13 0 011.977-.752 9.167 9.167 0 012.32-.29zm2.063 6.434l-1.536.054c-1.261.043-2.145.258-2.654.645-.508.386-.762.916-.762 1.589 0 .588.175 1.017.526 1.29.351.265.813.397 1.386.397.873 0 1.597-.247 2.17-.741.58-.502.87-1.236.87-2.202v-1.032zm12.063-6.434c.201 0 .419.011.656.032.236.022.44.05.612.086l-.236 2.363a3.164 3.164 0 00-.559-.096 5.748 5.748 0 00-.58-.033c-.451 0-.881.076-1.289.226a3.041 3.041 0 00-1.826 1.772c-.179.444-.269.96-.269 1.547V180h-2.535v-11.892h1.976l.344 2.095h.118c.237-.422.53-.809.881-1.16.351-.351.752-.63 1.203-.838a3.5 3.5 0 011.504-.322zm8.136 0c1.5 0 2.64.333 3.4.999.77.666 1.16 1.704 1.16 3.115V180h-1.79l-.49-1.687h-.08c-.34.43-.69.785-1.04 1.064-.36.279-.78.487-1.25.623-.465.143-1.035.215-1.708.215-.709 0-1.343-.129-1.901-.387a3.026 3.026 0 01-1.322-1.203c-.322-.537-.483-1.217-.483-2.041 0-1.225.455-2.145 1.364-2.761.917-.616 2.299-.956 4.15-1.02l2.06-.075v-.624c0-.823-.19-1.41-.58-1.761-.38-.351-.92-.527-1.61-.527-.596 0-1.173.086-1.732.258-.558.172-1.102.383-1.632.634l-.817-1.783a9.13 9.13 0 011.977-.752 9.175 9.175 0 012.324-.29zm2.06 6.434l-1.54.054c-1.258.043-2.142.258-2.651.645-.508.386-.763.916-.763 1.589 0 .588.176 1.017.527 1.29.351.265.813.397 1.386.397.871 0 1.601-.247 2.171-.741.58-.502.87-1.236.87-2.202v-1.032zm12.23-6.434c1.34 0 2.39.347 3.13 1.042.75.687 1.13 1.794 1.13 3.319V180h-2.53v-7.283c0-.924-.19-1.615-.57-2.073-.38-.466-.96-.699-1.76-.699-1.15 0-1.95.355-2.4 1.064-.45.709-.67 1.736-.67 3.083V180h-2.52v-11.892h1.96l.36 1.612h.14c.25-.416.57-.756.95-1.021.39-.272.82-.476 1.29-.612.48-.136.98-.204 1.49-.204zm11.19 17.402c-1.61 0-2.85-.29-3.71-.87-.86-.58-1.29-1.393-1.29-2.438 0-.731.23-1.35.69-1.859.46-.501 1.11-.848 1.96-1.042-.32-.143-.6-.365-.83-.666a1.671 1.671 0 01-.35-1.02c0-.444.13-.824.38-1.139.25-.315.63-.619 1.13-.913a3.262 3.262 0 01-1.51-1.289c-.37-.602-.56-1.307-.56-2.116 0-.86.19-1.59.55-2.192.37-.609.9-1.07 1.6-1.386.7-.322 1.55-.483 2.55-.483.21 0 .45.014.7.043.25.022.49.05.71.086.22.029.39.061.5.097h4.12v1.407l-2.02.376c.19.272.34.584.46.934.11.344.17.72.17 1.128 0 1.232-.43 2.203-1.28 2.911-.84.702-2.01 1.053-3.5 1.053-.36-.014-.71-.043-1.04-.086-.26.158-.46.333-.59.527-.14.186-.21.397-.21.633 0 .194.07.351.21.473.13.115.33.201.6.258.27.057.6.086.99.086h2.05c1.3 0 2.3.276 2.98.827.69.551 1.04 1.361 1.04 2.428 0 1.353-.56 2.395-1.68 3.126-1.12.737-2.73 1.106-4.82 1.106zm.09-1.772c.88 0 1.63-.086 2.23-.258.6-.172 1.05-.419 1.36-.741.31-.315.46-.691.46-1.128 0-.387-.09-.684-.29-.892-.19-.208-.48-.351-.87-.43-.38-.078-.86-.118-1.44-.118h-1.87c-.46 0-.87.072-1.23.215-.36.151-.64.365-.84.645-.19.279-.29.616-.29 1.009 0 .545.24.964.72 1.257.49.294 1.18.441 2.06.441zm.5-9.26c.74 0 1.28-.201 1.64-.602.36-.408.54-.981.54-1.718 0-.802-.19-1.404-.56-1.805-.37-.401-.91-.602-1.63-.602-.71 0-1.25.204-1.63.613-.36.408-.54 1.013-.54 1.815 0 .723.18 1.289.54 1.697.38.401.92.602 1.64.602z" fill="#055CAB"/><defs><linearGradient id="paint0_linear_338_7048" x1="0" y1="167" x2="1162" y2="167" gradientUnits="userSpaceOnUse"><stop stop-color="#4481EB"/><stop offset="1" stop-color="#04BEFE"/></linearGradient><linearGradient id="paint1_linear_338_7048" x1="309.398" y1="224.01" x2="-9.859" y2="366.237" gradientUnits="userSpaceOnUse"><stop stop-color="#7ED4EF"/><stop offset=".229" stop-color="#66BFE6"/><stop offset=".711" stop-color="#298BD0"/><stop offset="1" stop-color="#0169C2"/></linearGradient><linearGradient id="paint2_linear_338_7048" x1="320.121" y1="219.173" x2="748.108" y2="-47.703" gradientUnits="userSpaceOnUse"><stop stop-color="#7ED4EF"/><stop offset=".229" stop-color="#66BFE6"/><stop offset=".711" stop-color="#298BD0"/><stop offset="1" stop-color="#0169C2"/></linearGradient></defs></svg>